<?xml version="1.0" encoding="utf-8"?>
<!-- Generator: Adobe Illustrator 25.1.0, SVG Export Plug-In . SVG Version: 6.00 Build 0)  -->
<svg version="1.1" xmlns="http://www.w3.org/2000/svg" xmlns:xlink="http://www.w3.org/1999/xlink" x="0px" y="0px"
	 viewBox="0 0 74.7 69.8" style="enable-background:new 0 0 74.7 69.8;" xml:space="preserve">
<style type="text/css">
	.st0{fill:#2FBEC5;}
	.st1{fill:#F7F9FB;}
</style>
<g id="Layer_1">
	<g>
		<path class="st0" d="M55.7,30.6c4.5,0.2,8.9,2.6,11.5,7.7c2.8,5.4,2.2,10.7-1.1,15.6c-1.2,1.8-2.8,3.5-4.2,5.1
			c-2.5,2.8-4.8,5.7-6.3,9.1c-0.2,0.4-0.6,0.9-1,1c-0.3,0.1-0.9-0.3-1-0.7c-1.9-4.6-5.3-8.2-8.6-11.8c-2.5-2.7-4.3-5.8-4.7-9.6
			C39.1,38.4,45.8,30.7,55.7,30.6 M62.1,45c0-4.2-3.3-7.5-7.4-7.6c-4.2-0.1-7.7,3.3-7.8,7.5c0,4.3,3.4,7.7,7.6,7.8
			C58.7,52.6,62.1,49.2,62.1,45"/>
		<path class="st1" d="M37.4,44.6c-0.5-0.1-0.9-0.1-1.4-0.3c-0.3-0.1-0.7-0.7-0.6-1c0.2-0.4,0.6-0.9,1-0.9c0.4,0,0.8,0,1.2,0.1
			c0.3-2.3,1.2-4.5,2.5-6.5V7.5h0v-6c-0.8,0.2-1.2,0.4-1.7,0.5c-4.6,2-9.3,4-13.9,5.8c-1.3,0.5-1.7,1.3-1.7,2.6
			c0,15.2,0,30.4,0,45.6c0,0.6,0.1,1.3,0.1,2c0.5-0.2,0.7-0.2,1-0.3c4.9-2.1,9.9-4.1,14.8-6.2c-0.6-1.5-1-2.9-1.2-4.5
			C37.5,46.3,37.4,45.4,37.4,44.6 M26.8,37.5c-0.8-0.5-1.6-1.2-2.4-1.9c-0.1-0.1-0.1-0.7,0.1-1c0.2-0.2,0.7-0.5,0.9-0.4
			c0.9,0.6,1.7,1.3,2.5,2c0.1,0.1,0.1,0.3,0.1,0.4C28,37.2,27.3,37.8,26.8,37.5 M32,41.8c-0.8-0.5-1.6-1.2-2.3-1.9
			c-0.4-0.4-0.1-1.2,0.5-1.4c0.8-0.2,3,1.5,3,2.4C33.2,41.5,32.5,42.1,32,41.8"/>
		<path class="st1" d="M1,51.1c6.2,2.4,12.3,4.8,18.7,7.3V8.7C13.5,6.3,7.4,3.9,1,1.4V51.1z M13.2,27.4c0.7-0.9,1.6-0.4,2.4-0.1
			c0.1,0,0.3,0.1,0.4,0.2c0.3,0.4,0.9,0.9,0.9,1.1c-0.2,0.5-0.7,0.8-1.1,1.1c-0.1,0.1-0.4,0-1.1,0.1c-0.3-0.2-1-0.5-1.6-1
			C12.8,28.6,12.9,27.8,13.2,27.4 M8.4,29.5c0.4-0.3,0.8-0.6,1.3-0.8c0.6-0.2,1.2,0.3,1.2,1.2c-0.3,0.3-0.7,0.8-1.2,1.1
			c-1.3,1.1-2,1.2-2.4,0.5C6.8,30.4,7.9,30,8.4,29.5 M4.5,33.3c0.4,0,0.9,0.4,1.1,0.8c0.2,0.7-1.7,2.7-2.6,2.8
			c-0.2-0.2-0.5-0.5-0.6-0.8C2.2,35.2,3.7,33.2,4.5,33.3"/>
		<path class="st1" d="M56.6,8.4v19.9c5.5,0.3,10.2,3.5,12.9,8.7c2.7,5.2,2.6,10.5-0.1,15.6c1.4-0.6,2.9-1.2,4.3-1.8V1.1
			C67.9,3.6,62.3,6,56.6,8.4 M59.6,28c-0.5,0.4-1.4-0.4-1.1-1c0.4-1,1.1-1.9,1.8-2.6c0.4-0.5,1.3,0.2,1.3,1.3
			C61.1,26.3,60.4,27.2,59.6,28 M66.3,19.7c-0.6,0.8-1.4,1.6-2.2,2.3c-0.1,0.1-1-0.3-1.1-0.6c-0.3-0.8,1.5-2.9,2.4-2.8
			C66,18.5,66.6,19.3,66.3,19.7 M71.8,16c-0.7,0.4-1.4,0.9-2.1,1.1c-0.3,0.1-0.9-0.2-1.2-0.5c-0.1-0.2,0.1-0.9,0.3-1.1
			c0.7-0.5,1.5-1,2.3-1.2c0.7-0.2,1.1,0.3,1.3,1C72.2,15.5,72.1,15.9,71.8,16"/>
		<path class="st1" d="M51.9,7.4c-2.2-1.5-4.4-3.2-6.6-4.7c-0.5-0.4-1-0.6-1.8-1.1v2.7c0,8.6,0,17.3,0,25.9c0,0.5,0,1.1-0.1,1.6v0.9
			c2.7-2.3,6.1-3.7,9.9-4V9C53.1,8.4,52.6,7.9,51.9,7.4"/>
	</g>
</g>
<g id="Layer_2">
</g>
</svg>
