<?xml version="1.0" encoding="utf-8"?>
<!-- Generator: Adobe Illustrator 25.1.0, SVG Export Plug-In . SVG Version: 6.00 Build 0)  -->
<svg version="1.1" xmlns="http://www.w3.org/2000/svg" xmlns:xlink="http://www.w3.org/1999/xlink" x="0px" y="0px"
	 viewBox="0 0 75.8 63.7" style="enable-background:new 0 0 75.8 63.7;" xml:space="preserve">
<style type="text/css">
	.st0{fill:#F7F9FB;}
	.st1{fill:#31C4F3;}
</style>
<g id="Layer_1">
	<g>
		<path class="st0" d="M21.4,12.8c2.2,3.7,4.2,7.3,6.4,11.1c-0.5,0.5-1,1.1-1.6,1.6c-5,4.5-7.3,12.6-3.7,19.6c0.1,0.3,0.3,0.6,0.5,1
			c-1.6,1.6-3.8,2.3-5.6,3.5c-1.8,1.2-3.7,2.2-5.6,3.2C3.1,38.3,9.4,19.8,21.4,12.8"/>
		<path class="st0" d="M54.4,12.9c12.2,6.6,18.2,26.1,9.5,39.8c-3.7-2.1-7.3-4.2-11.2-6.4c1.9-3.9,2.8-7.8,1.9-12.1
			c-1-4.2-3.3-7.6-6.7-10.2C50,20.4,52,16.9,54,13.4C54.1,13.2,54.3,13.1,54.4,12.9"/>
		<path class="st1" d="M46.4,23c-5.7-3-11.2-3.1-16.9,0c-2.2-3.7-4.3-7.5-6.5-11.2c7.7-5.3,21.1-5.8,29.8-0.1
			C50.7,15.5,48.6,19.2,46.4,23"/>
		<path class="st1" d="M38.1,22.8c0.4,3.3,0.7,6.5,1.1,9.8c0.4,3.6,0.9,7.2,1.3,10.7c0.4,3.6,0.8,7.2,1.1,10.8
			c0.2,1.6,0.4,3.2,0.5,4.8c0.1,1.8-0.9,3-2.6,3.7c-1.5,0.6-3.5,0.2-4.7-1c-0.7-0.8-1.1-1.8-1-2.9c0.2-2.2,0.4-4.5,0.6-6.7
			c0.4-3.7,0.9-7.3,1.3-11c0.5-3.8,0.9-7.6,1.3-11.5c0.2-2.2,0.4-4.5,0.7-6.7C37.8,22.8,38,22.8,38.1,22.8 M37.9,60.3
			c1,0,1.7-0.6,1.7-1.6c0-0.9-0.7-1.8-1.5-1.8c-0.9-0.1-1.8,0.8-1.8,1.8C36.2,59.7,36.9,60.3,37.9,60.3"/>
		<path class="st0" d="M8.6,54.2c-2.9-5-4.5-10.9-4.4-17C4.5,19.3,19.6,4,38.3,4.1c17.8,0.2,33.4,15.2,33.2,33.9
			c-0.1,5.9-1.7,11.5-4.5,16.3l3,1.7c3-5.4,4.8-11.6,4.8-18.3C74.9,17,58.1,0.6,37.5,0.9C17.1,1.1,1.2,17.3,0.9,37.6
			c0,6.7,1.8,12.9,4.8,18.3L8.6,54.2z"/>
	</g>
</g>
<g id="Layer_2">
</g>
</svg>
