<?xml version="1.0" encoding="utf-8"?>
<!-- Generator: Adobe Illustrator 25.1.0, SVG Export Plug-In . SVG Version: 6.00 Build 0)  -->
<svg version="1.1" xmlns="http://www.w3.org/2000/svg" xmlns:xlink="http://www.w3.org/1999/xlink" x="0px" y="0px"
	 viewBox="0 0 67.8 66.6" style="enable-background:new 0 0 67.8 66.6;" xml:space="preserve">
<style type="text/css">
	.st0{fill:#F7F9FB;}
	.st1{fill:#31C4F3;}
</style>
<g id="Layer_1">
	<g>
		<polygon class="st0" points="67,65.3 0.6,65.3 0.6,0.9 7.5,0.9 7.5,58.4 67,58.4 		"/>
		<path class="st0" d="M60.6,21.2c2.7,0,4.6,1.1,6.4,3.1v-8c-1.8-0.9-3.9-1.5-6.4-1.5c-5.6,0-9.9,1.9-13.5,4.9
			c1,1.8,1.9,3.8,2.8,6.1C53,22.7,56.2,21.2,60.6,21.2"/>
		<path class="st0" d="M36.4,32.7c-1.5,2.1-3,4.3-4.6,6.6c-8.2,11.1-21.6,14-28.3,14v6.4c9.8,0,24.4-4.4,33.4-16.6
			c1.7-2.3,3.3-4.6,4.8-6.8c0.3-0.4,0.5-0.8,0.8-1.2c-1-2.8-1.9-5.1-2.8-7.1C38.6,29.6,37.5,31.1,36.4,32.7"/>
		<path class="st1" d="M59.4,45.7c-3.5-1.7-6.3-5.5-8.3-11.3C44.9,16.3,38.5,7.8,30.9,7.8c-6.5,0-11.8,5.5-17.1,17.9
			c-1.5,3.5-3,5.6-4.5,6.9V40c3.3-1.3,7.2-4.4,10.3-11.7c4-9.3,7.8-14,11.2-14c1.9,0,7.2,2.2,14.1,22.2c2.6,7.5,6.5,12.6,11.7,15
			c2.6,1.2,5,1.6,7.1,1.6c1.1,0,2.2-0.1,3.1-0.2v-6.4C65.5,46.7,62.3,47.1,59.4,45.7"/>
	</g>
</g>
<g id="Layer_2">
</g>
</svg>
