<?xml version="1.0" encoding="utf-8"?>
<!-- Generator: Adobe Illustrator 25.1.0, SVG Export Plug-In . SVG Version: 6.00 Build 0)  -->
<svg version="1.1" xmlns="http://www.w3.org/2000/svg" xmlns:xlink="http://www.w3.org/1999/xlink" x="0px" y="0px"
	 viewBox="0 0 78.2 79.8" style="enable-background:new 0 0 78.2 79.8;" xml:space="preserve">
<style type="text/css">
	.st0{fill:#31C4F3;}
	.st1{fill:#F7F9FB;}
</style>
<g id="Layer_1">
	<g>
		<path class="st0" d="M43.6,33.2L64.7,12C58,5.8,48.9,2.1,39,2.1c-2.8,0-5.5,0.3-8.1,0.9L43.6,33.2z"/>
		<path class="st1" d="M39.4,44.1H1.2c2,19.2,18.2,34.1,37.9,34.1c9.6,0,18.3-3.5,25-9.4L39.4,44.1z"/>
		<path class="st1" d="M69.3,17L45.5,40.8L68.7,64c5.2-6.5,8.4-14.8,8.4-23.8C77.1,31.4,74.2,23.4,69.3,17"/>
		<path class="st1" d="M38,37.4L24.5,5c-13,5.4-22.3,17.8-23.4,32.4H38z"/>
	</g>
</g>
<g id="Layer_2">
</g>
</svg>
