<?xml version="1.0" encoding="utf-8"?>
<!-- Generator: Adobe Illustrator 25.1.0, SVG Export Plug-In . SVG Version: 6.00 Build 0)  -->
<svg version="1.1" xmlns="http://www.w3.org/2000/svg" xmlns:xlink="http://www.w3.org/1999/xlink" x="0px" y="0px"
	 viewBox="0 0 56.4 57" style="enable-background:new 0 0 56.4 57;" xml:space="preserve">
<style type="text/css">
	.st0{fill:#F7F9FB;}
	.st1{fill:#31C4F3;}
</style>
<g id="Layer_1">
</g>
<g id="Layer_2">
	<path class="st0" d="M11.2,52.1h0.5c9.4,0,18.8,0,28.3,0c1.2,0,2.3-0.1,3.4-0.4c0.1,0,0.1,0,0.2,0v3.9h-0.4c-11.1,0-22.2,0-33.4,0
		c-0.2,0-0.4-0.1-0.5-0.2c-2.7-2.7-5.4-5.4-8.1-8.1C1.1,47.1,1,46.9,1,46.7C1,31.6,1,16.5,1,1.3V1h42.6v24.3
		c-0.5-0.1-0.9-0.2-1.4-0.3c-0.6-0.1-1.1-0.1-1.7-0.2c-0.2,0-0.3-0.1-0.3-0.3c0-0.1,0-0.2,0-0.3c0-6.5,0-12.9,0-19.4
		c0-0.5,0-0.5-0.5-0.5c-11.6,0-23.2,0-34.9,0H4.4C4.3,18,4.3,31.6,4.2,45.3h7V52.1z"/>
	<path class="st0" d="M55.5,51.9c-1.3,1.2-2.5,2.3-3.8,3.5c-0.6-0.6-1.1-1.1-1.6-1.7c-2.1-2.1-4.1-4.1-6.2-6.2
		c-0.2-0.2-0.4-0.3-0.7-0.1c-6.2,3.2-13.5-0.5-14.8-7.3c-1-5.7,3-11.2,8.7-11.9c6.6-0.8,12.2,4.6,11.5,11.2
		c-0.1,1.4-0.5,2.7-1.2,3.9c-0.1,0.2-0.1,0.4,0.1,0.5c2.5,2.6,5.1,5.2,7.6,7.7C55.2,51.7,55.4,51.7,55.5,51.9 M38.5,45.3
		c3.7,0,6.8-3.1,6.8-6.8c0-3.7-3.1-6.8-6.8-6.8c-3.8,0-6.8,3.1-6.8,6.8C31.7,42.2,34.7,45.3,38.5,45.3"/>
	<rect x="33.4" y="7.8" class="st0" width="3.4" height="17"/>
	<path class="st1" d="M7.8,28.3h17v3.4c-0.1,0-0.2,0-0.4,0c-5.4,0-10.9,0-16.3,0c-0.3,0-0.4-0.1-0.4-0.4C7.8,30.3,7.8,29.3,7.8,28.3
		"/>
	<rect x="7.8" y="33.4" class="st1" width="17" height="3.4"/>
	<path class="st1" d="M24.8,38.5v3.4h-17c0-0.1,0-0.2,0-0.3c0-0.9,0-1.8,0-2.8c0-0.2,0-0.3,0.3-0.3c5.5,0,11,0,16.4,0
		C24.6,38.5,24.7,38.5,24.8,38.5"/>
	<path class="st0" d="M23.1,11.2h1.3c0.6,0,1.1,0,1.7,0c0.3,0,0.4,0.1,0.4,0.4c0,1.1,0,2.3,0,3.4v9.3v0.5h-3.4V11.2z"/>
	<path class="st0" d="M18,14.6h3.4c0,0.1,0,0.2,0,0.4c0,3.2,0,6.3,0,9.5c0,0.3-0.1,0.4-0.4,0.4c-1,0-2,0-3,0V14.6z"/>
	<rect x="28.3" y="14.6" class="st0" width="3.4" height="10.2"/>
	<path class="st0" d="M11.2,18v6.8c-0.1,0-0.2,0-0.3,0c-0.9,0-1.9,0-2.8,0c-0.2,0-0.3-0.1-0.3-0.3c0-2.1,0-4.1,0-6.2
		c0-0.1,0-0.3,0.2-0.3C9,18,10.1,18,11.2,18"/>
	<path class="st0" d="M12.9,21.4c0-1,0-2,0-3.1c0-0.2,0.1-0.3,0.3-0.3c0.9,0,1.9,0,2.8,0c0.2,0,0.3,0,0.3,0.3c0,2.1,0,4.2,0,6.2
		c0,0.2-0.1,0.3-0.3,0.3c-0.9,0-1.9,0-2.8,0c-0.2,0-0.3-0.1-0.3-0.3C12.9,23.5,12.9,22.4,12.9,21.4"/>
</g>
</svg>
