<?xml version="1.0" encoding="utf-8"?>
<!-- Generator: Adobe Illustrator 25.1.0, SVG Export Plug-In . SVG Version: 6.00 Build 0)  -->
<svg version="1.1" id="Layer_1" xmlns="http://www.w3.org/2000/svg" xmlns:xlink="http://www.w3.org/1999/xlink" x="0px" y="0px"
	 viewBox="0 0 110 110" style="enable-background:new 0 0 110 110;" xml:space="preserve">
<style type="text/css">
	.st0{fill:#202757;}
	.st1{fill:#FFFFFF;}
	.st2{fill:#33A5B1;}
</style>
<g>
	<circle class="st0" cx="55" cy="55" r="53.9"/>
	<g>
		<path class="st1" d="M53.4,83.5c-2.4-0.5-4.8-0.8-7.1-1.6c-11.3-4.1-18.3-12.2-20-24.1c-2.3-16.4,9.1-30.5,24.2-33.1
			c16-2.8,30.9,7.1,34.6,22.9C88.6,62.9,78.5,79,63,82.6c-1.5,0.3-3.1,0.6-4.6,0.9C56.7,83.5,55,83.5,53.4,83.5z M32.6,53.8
			c0,12.7,10.5,23.1,23.2,23.2c12.9,0,23.3-10.4,23.3-23.2c0-12.8-10.6-23.2-23.4-23.2C43,30.6,32.6,41.1,32.6,53.8z"/>
		<path class="st2" d="M83.3,36.1c0.6-0.7,1.3-1.4,2-2.2c0.8-0.9,1.5-1.8,2.1-2.6c-0.2-1.2-0.8-5.3-4.5-8.6
			c-4.2-3.9-9.3-3.8-10.3-3.7c-1.4,1.7-2.8,3.3-4.2,4.9c0.1,0,0.1,0.1,0.2,0.1C74.5,26.4,79.7,30.6,83.3,36.1z"/>
		<path class="st2" d="M28.7,36.8c0,0,0.1-0.1,0.1-0.1c3.5-5.5,8.5-9.8,14.6-12.4c0,0,0,0,0,0c-1.4-1.7-2.8-3.3-4.2-4.9
			c-1,0-6.1-0.2-10.3,3.7c-3.6,3.3-4.3,7.5-4.5,8.6c0.6,0.9,1.3,1.7,2.1,2.6C27.3,35.2,28,36,28.7,36.8z"/>
		<path class="st1" d="M64,60.2c-3.5-2.1-7-4.1-10.6-6.1c-0.8-0.5-1.1-0.9-1.1-1.9c0.1-4.4,0-8.9,0-13.3c0-0.4,0-0.9,0-1.3
			c-0.5-0.1-1-0.1-1.6-0.1c-1,0-2.1,0.1-3,0.3c0,5.8,0,11.5,0,17.2c0,0.4,0.4,0.9,0.8,1.1c1.8,1.1,3.7,2.2,5.5,3.3
			c2.4,1.4,4.7,2.8,7.2,4.3C62.3,62.7,63.3,61.5,64,60.2z"/>
	</g>
</g>
</svg>
