<?xml version="1.0" encoding="utf-8"?>
<!-- Generator: Adobe Illustrator 25.1.0, SVG Export Plug-In . SVG Version: 6.00 Build 0)  -->
<svg version="1.1" id="Layer_1" xmlns="http://www.w3.org/2000/svg" xmlns:xlink="http://www.w3.org/1999/xlink" x="0px" y="0px"
	 viewBox="0 0 110 110" style="enable-background:new 0 0 110 110;" xml:space="preserve">
<style type="text/css">
	.st0{fill:#202757;}
	.st1{fill:#FFFFFF;}
	.st2{fill:#2FBEC5;}
</style>
<circle class="st0" cx="55" cy="55" r="53.9"/>
<g>
	<path class="st1" d="M31.2,38.6c3.3-3.3,6.6-6.6,9.9-10v10H31.2z"/>
	<g>
		<path class="st1" d="M30,82.6V41.2c2.6,0,5.1,0,7.7,0c1.3,0,2.6-0.1,3.9,0c1.6,0.1,2.2-0.5,2.2-2.1c-0.1-3.8,0-7.6,0-11.6
			c0.6,0,1.1-0.1,1.7-0.1c9.9,0,19.8,0,29.8,0c3.7,0,4.8,1.1,4.8,4.9c0,16.1,0,32.2,0,48.3v2.1H30z M55.1,49.1c-4.8,0-9.6,0-14.4,0
			c-2.3,0-2.6,0.2-2.6,2.5c0,8.2,0,16.4,0,24.6c0,2.5,0.2,2.6,2.6,2.6c9.6,0,19.1,0,28.7,0c2.3,0,2.7-0.4,2.7-2.6
			c0-8.3,0-16.5,0-24.8c0-1.8-0.7-2.4-2.4-2.4C64.8,49.1,59.9,49.1,55.1,49.1 M60.8,38.7c-2.9,0-5.9,0-8.8,0c-1,0-1.9,0.2-1.7,1.3
			c0.1,0.5,1,1.2,1.6,1.2c5.8,0.1,11.7,0.1,17.5,0c0.6,0,1.5-0.7,1.6-1.2c0.2-1.2-0.7-1.3-1.7-1.3C66.5,38.7,63.6,38.7,60.8,38.7"/>
		<rect x="48.6" y="51.8" class="st2" width="20.5" height="6.4"/>
		<rect x="48.6" y="69.8" class="st2" width="20.5" height="6.3"/>
		<rect x="48.6" y="60.8" class="st2" width="20.6" height="6.3"/>
		<rect x="40.8" y="51.7" class="st2" width="5.2" height="6.4"/>
		<rect x="40.8" y="60.8" class="st2" width="5.2" height="6.3"/>
		<rect x="40.8" y="69.8" class="st2" width="5.2" height="6.3"/>
	</g>
</g>
</svg>
