<?xml version="1.0" encoding="utf-8"?>
<!-- Generator: Adobe Illustrator 25.1.0, SVG Export Plug-In . SVG Version: 6.00 Build 0)  -->
<svg version="1.1" id="Layer_1" xmlns="http://www.w3.org/2000/svg" xmlns:xlink="http://www.w3.org/1999/xlink" x="0px" y="0px"
	 viewBox="0 0 110 110" style="enable-background:new 0 0 110 110;" xml:space="preserve">
<style type="text/css">
	.st0{fill:#202757;}
	.st1{fill:#FFFFFF;}
	.st2{fill:#2FBEC5;}
</style>
<g>
	<circle class="st0" cx="55" cy="55" r="53.9"/>
	<g>
		<path class="st1" d="M55.9,88.3c-19.2-0.1-34.3-15.4-34.3-34.8c0.1-18.7,15.8-33.9,34.9-33.7c19,0.2,34,16.1,33.7,34.9
			C90,73.3,74.8,88.4,55.9,88.3 M84.3,54.2c0-15.8-12.7-28.6-28.6-28.4C40.4,26,27.8,38,27.7,54.1c-0.1,15.6,12.7,28.3,28.4,28.3
			C71.7,82.3,84.3,69.7,84.3,54.2"/>
		<path class="st2" d="M36.4,53c0.2-7.6,3.8-13.2,10.3-17c0.9-0.5,1.8-0.8,2.8-0.2c0.7,0.5,0.7,1.2,0.6,1.9
			c-0.1,0.8-0.7,1.1-1.3,1.5c-5.6,3.2-8.6,8-8.5,14.5c0,7.1,5.7,13.7,12.7,15.1c9,1.8,17.2-4.7,18.6-12.7c1.2-6.6-2.1-13.6-8.2-16.8
			c-0.6-0.3-1.3-0.6-1.5-1.3c-0.2-0.8-0.1-1.5,0.5-2.1c0.6-0.6,1.4-0.5,2.1-0.2c2.5,1,4.6,2.7,6.3,4.7c5.8,6.9,6.5,16,1.7,23.6
			c-5.6,8.9-17.6,11.6-26.8,6C39.5,66,36.5,60.2,36.4,53"/>
		<path class="st2" d="M57.9,37.1c0,2.4,0,4.9,0,7.3c0,0.8-0.3,1.5-1.7,1.5c-1.1,0-1.9-0.2-2-1.1c-0.1-0.8-0.2-1.6-0.2-2.3
			c0-4,0.1-8,0.2-12c0-0.3-0.1-0.5-0.1-0.8c-0.1-0.9,0.6-1.5,1.8-1.5c1.2,0,2,0.5,2,1.4C57.9,32.1,57.9,34.6,57.9,37.1"/>
		<path class="st1" d="M36.4,77.2c-2.5,2.5-5,5-7.5,7.5c-0.8,0.8-1.7,1.3-2.7,0.4c-0.8-0.7-1.1-1.6-0.3-2.5c0.7-0.9,1.5-1.8,2.3-2.6
			c4.1-4.1,51.7-51.6,55.9-55.7c0.3-0.3,0.5-0.6,0.8-0.9c0.9-1,2-1.1,2.9-0.3c0.9,0.8,0.9,1.9-0.1,2.9C85,28.6,39,74.6,36.4,77.2"/>
	</g>
</g>
</svg>
