<?xml version="1.0" encoding="utf-8"?>
<!-- Generator: Adobe Illustrator 25.1.0, SVG Export Plug-In . SVG Version: 6.00 Build 0)  -->
<svg version="1.1" id="Layer_1" xmlns="http://www.w3.org/2000/svg" xmlns:xlink="http://www.w3.org/1999/xlink" x="0px" y="0px"
	 viewBox="0 0 110 110" style="enable-background:new 0 0 110 110;" xml:space="preserve">
<style type="text/css">
	.st0{fill:#202757;}
	.st1{fill:#FFFFFF;}
	.st2{fill:#2FBEC5;}
</style>
<g>
	<circle class="st0" cx="55" cy="55" r="53.9"/>
	<path class="st1" d="M54.7,87.3c-18.9-0.1-33.7-15.1-33.6-34c0.1-18.2,15.5-33.1,34.3-32.9c18.7,0.2,33.4,15.7,33.1,34
		C88.1,72.7,73.2,87.4,54.7,87.3 M82.6,54c0-15.4-12.5-27.9-28.1-27.7c-15,0.2-27.4,12-27.5,27.6c-0.1,15.3,12.5,27.6,27.9,27.6
		C70.2,81.5,82.6,69.2,82.6,54"/>
	<path class="st2" d="M35.5,52.9c0.2-7.5,3.7-13,10.1-16.8c0.9-0.5,1.8-0.8,2.8-0.2c0.7,0.4,0.7,1.1,0.6,1.9
		c-0.1,0.8-0.7,1.1-1.3,1.5c-5.5,3.1-8.4,7.8-8.4,14.2c0,7,5.6,13.5,12.5,14.8c8.8,1.8,16.9-4.7,18.3-12.5c1.2-6.5-2.1-13.4-8-16.5
		c-0.6-0.3-1.3-0.6-1.5-1.3c-0.2-0.7-0.1-1.5,0.5-2.1c0.6-0.6,1.4-0.4,2.1-0.2c2.5,1,4.5,2.6,6.2,4.6c5.7,6.8,6.4,15.7,1.7,23.2
		c-5.5,8.7-17.3,11.4-26.4,5.9C38.5,65.7,35.7,60,35.5,52.9"/>
	<path class="st2" d="M56.7,54c0,2.8,0,5.6,0,8.4c0,0.9-0.3,1.7-1.7,1.7c-1.1,0-1.8-0.3-2-1.2c-0.1-0.9-0.2-1.8-0.2-2.7
		c0-4.6,0.1-9.2,0.1-13.8c0-0.3-0.1-0.6-0.1-0.9c-0.1-1.1,0.6-1.8,1.8-1.8c1.2,0,2,0.6,2,1.7C56.7,48.2,56.7,51.1,56.7,54"/>
</g>
</svg>
