<?xml version="1.0" encoding="utf-8"?>
<!-- Generator: Adobe Illustrator 25.1.0, SVG Export Plug-In . SVG Version: 6.00 Build 0)  -->
<svg version="1.1" id="Layer_1" xmlns="http://www.w3.org/2000/svg" xmlns:xlink="http://www.w3.org/1999/xlink" x="0px" y="0px"
	 viewBox="0 0 110 110" style="enable-background:new 0 0 110 110;" xml:space="preserve">
<style type="text/css">
	.st0{fill:#202757;}
	.st1{fill:#2FBEC5;}
	.st2{fill:#FFFFFF;}
</style>
<g>
	<circle class="st0" cx="55" cy="55" r="53.9"/>
	<g>
		<g>
			<g>
				<path class="st1" d="M68.7,33.8c-0.2,3.2-1.4,6.3-3.1,9.2c-3.1,5.3-6.3,10.5-7.8,16.5c-0.3,1.1-0.9,2.1-2.3,2.1
					c-1.3,0-1.7-1.1-2-2.1c-1.7-5.7-4.5-10.9-7.6-15.9c-2.3-3.9-4.1-8-3.1-12.8c1.4-6.3,7.6-10.9,13.9-10.3
					C63.5,21.1,68.7,26.8,68.7,33.8z M55.5,53.6c2-3.7,3.8-7.3,6-10.7c1.2-2,2.3-4.1,3-6.4c1-3.5,0.8-6.9-2.1-9.6
					c-3.4-3.3-8.2-3.9-11.9-1.6c-4.2,2.7-5.6,7.1-3.7,12.1C49.1,43.1,53.1,47.9,55.5,53.6z"/>
				<path class="st2" d="M61.6,33.3c0,3.3-2.7,6.2-5.8,6.3c-3.5,0.1-6.4-2.8-6.3-6.4c0-3,2.9-5.8,6.1-5.9
					C58.8,27.2,61.6,30,61.6,33.3z"/>
			</g>
		</g>
		<path class="st2" d="M87.4,54.5c-5.2-2.7-14.5-7-19.8-9.7L65,49.3c4.4,2.2,12.7,6.1,17.3,8.4c-2.2,1.9-4.1,3.7-6.2,5.3
			c-1.5,1.2-1.9,2.6-1,4.4c1.6,3.4,3.1,6.8,4.7,10.4c-4.2,0.9-8.1,1.7-12,2.5c-3.3,0.7-6.6,1.4-10,2c-0.8,0.1-1.8,0.3-2.5-0.1
			c-9.6-5.2-19.2-10.5-29-15.8c1.7-3.7,3.2-7.3,4.9-10.8c0.3-0.6,1.2-1,1.9-1.1c3.2-0.6,9.6-1.5,12.9-1.9l-2.5-4.9
			c-3.2,0.5-9.6,1.4-12.8,1.9c-1.8,0.3-3,1.1-3.7,2.8c-1.9,4.5-4,8.9-6,13.4c-1,2.2-0.8,3.1,1.3,4.3c10.5,5.8,21.1,11.6,31.7,17.3
			c0.8,0.5,2.1,0.6,3,0.4c8.8-1.7,17.5-3.5,26.2-5.3c2.9-0.6,3.7-2.1,2.5-4.8c-1.7-3.8-3.4-7.5-5.1-11.4c2.6-2.3,5.1-4.4,7.6-6.6
			C90.4,57.5,90.2,55.9,87.4,54.5z"/>
	</g>
</g>
</svg>
