<?xml version="1.0" encoding="utf-8"?>
<!-- Generator: Adobe Illustrator 25.1.0, SVG Export Plug-In . SVG Version: 6.00 Build 0)  -->
<svg version="1.1" id="Layer_1" xmlns="http://www.w3.org/2000/svg" xmlns:xlink="http://www.w3.org/1999/xlink" x="0px" y="0px"
	 viewBox="0 0 110 110" style="enable-background:new 0 0 110 110;" xml:space="preserve">
<style type="text/css">
	.st0{fill:#202757;}
	.st1{fill:#2FBEC5;}
	.st2{fill:#FFFFFF;}
</style>
<circle class="st0" cx="55" cy="55" r="53.9"/>
<g>
	<path class="st1" d="M45.6,46.4c-3.1,0-6.1,0-9.2,0c-1.6,0-1.9-0.3-1.9-1.9c0-3.5,0-7.1,0-10.6c0-1.5,0.3-1.8,1.8-1.8
		c6.3,0,12.5,0,18.8,0c1.3,0,1.8,0.4,1.8,1.7c0,3.6,0,7.2,0,10.8c0,1.4-0.5,1.7-1.9,1.7C51.8,46.4,48.7,46.4,45.6,46.4"/>
	<path class="st2" d="M72.2,34c0.3,0.6,0.8,0.7,1.4,1c0.7-0.7,1.4-1.5,1.9-2.3c0.5-0.8,1-1.3,1.9-1.6c0.7-0.2,1.4-0.5,2.1-0.8
		c0.6-0.3,0.7-0.6,0.5-1.2c-0.2-0.5-0.5-0.7-1.1-0.5c-1.1,0.4-2.3,0.9-3.4,1.4C75.3,30,75.1,30,75,30.2C74.1,31.4,73.1,32.6,72.2,34
		"/>
	<path class="st2" d="M66.6,53.4c0.6,0,1.2-0.1,1.8-0.1c0.7-0.1,0.9-0.3,0.7-1c-0.1-0.2-0.2-0.3-0.2-0.5c0.3-0.4,0.7-0.3,1-0.3
		c1.2-0.1,2.4-0.1,3.6-0.4c1.5-0.4,2.1-1.2,1.9-2.7c-0.1-0.8-0.4-1.7-0.6-2.5c-0.1-0.6-0.3-1.2-0.5-1.8c-0.2-0.5-0.2-1,0.2-1.5
		c0.2-0.2,0.1-0.5,0.1-0.8c-0.1-1.8-0.4-3.5-0.6-5.3c0-0.5-0.2-0.9-0.7-1.1c-0.6-0.4-1.2-1-2-1.2c-0.9,1.1-2.4,1-3.7,1.4
		c-0.2,0.1-0.4,0.1-0.7,0.1c-0.7,0.1-1.1,0.5-1.3,1.2c-0.4,1.6-0.9,3.1-1.3,4.6c-0.3,1.1-0.2,1.2,0.7,1.7c0.7,0.4,1,0.8,1,1.6
		c-0.1,2.3-0.2,4.7,0,7c0,0.3-0.1,0.5-0.2,0.8C65.8,53.1,66,53.4,66.6,53.4 M68.4,48.7c-0.2-1.5-0.4-3-0.2-4.5
		c0.1-1.2,1.2-2,2.3-2.1v0c0,0,0.8-0.1,1.4,0.3c0.3,0.1,0.5,0.3,0.6,0.6c0.1,0.2,0.2,0.3,0.2,0.5h0c0,0.1,0.1,0.2,0.1,0.3
		c0.4,1.2,0.6,2.5,0.8,3.7c0.2,1.1-0.3,1.8-1.4,2.2c-0.9,0.3-1.9,0.4-2.8,0.1c0.4-1.3,0.4-1.6,0.5-2.9c0.1-1.1,0.4-2,1.5-2.5
		c0.3-0.1,0.5-0.4,0.4-0.7c-0.1-0.1-0.3-0.1-0.4-0.2c-0.3,0.1-0.6,0.1-0.9,0.2c-1.2,0.3-1.5,0.8-1.5,2c-0.1,1.6-0.1,2-0.2,3.6
		C68.5,49.2,68.4,49,68.4,48.7"/>
	<path class="st2" d="M68.9,54.9c0-0.4,0-0.8-0.2-1.1c-0.2-0.5-0.6-0.9-1.1-0.9c-0.6,0-1.1,0.3-1.2,0.9c-0.1,0.4-0.1,0.8-0.1,1.3
		c0,3.6,0,7.2,0,10.7c0,2.6-1.4,4.5-3.6,5.6c-1.3,0.7-2.8,1-4.2,0.6V51.2c0.3-0.1,0.5-0.1,0.7-0.1c1.9-0.2,2.2-0.4,2.2-2.3
		c0-6.5,0-13,0-19.4c0-1.6-0.4-2-2-2c-9.1,0-18.3,0-27.4,0c-1.7,0-2,0.3-2,2.1c0,4.3,0,8.5,0,12.8c0,2.4,0,4.7,0,7.1
		c0,1.4,0.3,1.7,1.7,1.8c0.4,0,0.8-0.1,1.2,0.2c0.2,0.5,0.1,1.1,0.1,1.6c0,9.3,0,18.5,0,27.8c0,0.7,0,1.4,0.6,2h24.3
		c0.4-0.6,0.6-1.3,0.6-2c0-1.6,0-3.1,0-4.7c0-0.4,0-1.2,0-1.2s2.1-0.1,3-0.2c4.5-0.9,7.5-4.5,7.6-9.4C69,61.8,68.9,58.3,68.9,54.9
		 M49.5,67.6c-0.1,1.5-0.4,2.5-1.1,3.5c-0.7,1.1-1.7,1.9-2.9,2.4c-0.5,0.2-1.1,0.3-1.7,0.4c-1,0.1-1.9,0-2.9-0.3
		c-1.2-0.4-2.2-1-3-1.9c-1.3-1.4-1.8-3-1.7-4.9c0.1-1.3,0.5-2.4,1.2-3.5c1.1-1.9,2.3-3.7,3.6-5.4c0.6-0.7,1.1-1.5,1.5-2.4
		c0.1-0.2,0.2-0.3,0.4,0c0.5,0.6,0.9,1.3,1.4,1.9c0.5,0.7,0.9,1.4,1.4,2.1c0.8,1.3,1.7,2.5,2.4,3.8c0.5,0.8,0.9,1.7,1.1,2.7
		C49.4,66.7,49.6,67.3,49.5,67.6 M54.9,66.2c-0.7,0.9-2,1.5-3.1,1.5c-0.3,0-0.6,0-0.8-0.1c0-0.3-0.1-0.7-0.2-1.1
		c0-0.2-0.1-0.3-0.1-0.5c-0.3-1.2-0.8-2.4-1.6-3.6c-0.3-0.5-0.6-0.9-0.9-1.4c0.5-1,1.1-1.9,1.8-2.8c0.5-0.7,1.1-1.4,1.5-2.2
		c0.1-0.2,0.1-0.2,0.3,0c0.1,0.2,0.3,0.4,0.4,0.6c0.9,1.3,1.7,2.7,2.6,4c0.4,0.6,0.7,1.1,0.9,1.8C56.1,63.8,55.8,65.1,54.9,66.2
		 M32.6,48.4c-0.3-0.9-0.4-17-0.1-18.5h26.1v18.5H32.6z"/>
</g>
</svg>
