<?xml version="1.0" encoding="utf-8"?>
<!-- Generator: Adobe Illustrator 25.1.0, SVG Export Plug-In . SVG Version: 6.00 Build 0)  -->
<svg version="1.1" id="Layer_1" xmlns="http://www.w3.org/2000/svg" xmlns:xlink="http://www.w3.org/1999/xlink" x="0px" y="0px"
	 viewBox="0 0 110 110" style="enable-background:new 0 0 110 110;" xml:space="preserve">
<style type="text/css">
	.st0{fill:#202757;}
	.st1{fill:#2FBEC5;}
	.st2{fill:#FFFFFF;}
</style>
<g>
	<circle class="st0" cx="55" cy="55" r="53.9"/>
	<g>
		<path class="st1" d="M55.8,40.6c-0.9-0.9-1.6-1.6-2.4-2.5c0.8-0.8,1.6-1.6,2.5-2.5c1.2-1.2,1.2-1.6,0-2.7
			c-1.3-1.3-2.6-2.5-3.8-3.7c-3.2,3.2-6.4,6.3-9.7,9.5c1.4,1.3,2.7,2.7,4.1,4c0.9,0.8,1.2,0.8,2.2-0.1c0.9-0.9,1.8-1.7,2.8-2.8
			c0.8,0.8,1.6,1.6,2.5,2.4c-1.8,1.8-3.6,3.6-5.3,5.4c-0.6,0.6-1.2,1.2-1.8,1.8c-0.7,0.8-0.7,1.2,0,1.9c1.1,1.1,2.2,2.1,3.2,3.1
			c0,0.9-0.7,1.1-1,1.5c-0.4,0.5-0.7,0.9-1.1,1.4c-0.5-0.3-0.9-0.4-1.2-0.7c-5-3.5-11.6-3.1-16.2,0.8c-1.4,1.2-1.4,1.6-0.2,2.9
			c2.1,2.1,4.2,4.2,6.3,6.3c0.2,0.2,0.5,0.5,0.8,0.9c-0.7,0.5-1.3,1-2,1.6c-0.2-0.2-0.6-0.5-1.1-0.8c-0.6-0.4-1.2-0.3-1.5,0.2
			c-0.4,0.5-0.3,1,0.1,1.4c1.2,1.3,2.5,2.5,3.8,3.7c0.6,0.6,1.2,0.6,1.7,0.1c0.5-0.5,0.4-1,0-1.5c-0.3-0.4-0.6-0.7-1-1.1
			c0.6-0.5,1.2-1,2-1.6c0.1,0.1,0.5,0.3,0.8,0.6c1.9,1.8,3.7,3.7,5.6,5.6c0.2,0.2,0.4,0.4,0.6,0.6c1.3,1.2,1.7,1.2,2.9-0.1
			c1.4-1.6,2.4-3.5,2.8-5.6c0.9-3.9,0.1-7.6-2.2-10.9c-0.1-0.2-0.2-0.4-0.4-0.7c0.8-0.8,1.5-1.6,2.4-2.5c0.9,0.8,1.6,1.6,2.4,2.4
			c0.3,0.3,0.6,0.7,1,1c0.9,0.8,1.3,0.9,2.2,0c1.2-1.2,2.4-2.4,3.6-3.6c1.1-1.1,2.2-2.2,3.3-3.3c0.8,0.8,1.6,1.6,2.5,2.4
			c-0.8,0.8-1.7,1.7-2.5,2.6c-1.1,1.1-1.1,1.4,0,2.5c1.2,1.3,2.6,2.4,4,3.8c3.1-2.9,6.1-6.1,9.4-9.3c-1.5-1.5-2.9-3-4.3-4.4
			c-0.5-0.5-1-0.4-1.5,0c-0.6,0.6-1.1,1.1-1.7,1.7c-0.4,0.4-0.9,0.9-1.4,1.5c-0.8-0.8-1.6-1.5-2.4-2.4c0.3-0.3,0.5-0.6,0.7-0.9
			c2-2,3.9-4,5.9-5.9c1.2-1.2,1.2-1.6,0.1-2.8c-0.3-0.3-0.6-0.5-1.1-0.8c0.9-0.9,1.5-1.5,2.2-2.2c0.9-1,0.9-1.4,0.1-2.3
			c-1.2-1.3-2.5-2.5-3.7-3.7c-0.9-0.8-1.2-0.8-2-0.1c-0.8,0.7-1.5,1.4-2.3,2.2c-0.5-0.4-0.9-0.8-1.3-1.2c-0.9-0.8-1.3-0.8-2.2,0.1
			c-2,2-3.9,4-5.9,5.9C56.5,40,56.1,40.3,55.8,40.6z"/>
		<path class="st2" d="M35.8,32c3.2-3.3,6.3-6.4,9.5-9.6c-1.4-1.3-2.8-2.8-4.4-4.1c-0.5-0.4-1.1-0.4-1.6,0c-0.2,0.2-0.4,0.4-0.6,0.6
			c-2.3,2.3-4.5,4.5-6.7,6.8c-1.2,1.2-1.2,1.5,0,2.7C33.3,29.5,34.6,30.7,35.8,32z"/>
		<path class="st2" d="M84.4,61.4c-3.2,3.3-6.2,6.5-9.4,9.8c1.2,1.2,2.7,2.6,4.1,4.1c0.5,0.5,1.1,0.5,1.7,0c0.2-0.2,0.4-0.4,0.6-0.6
			c2.2-2.2,4.4-4.4,6.6-6.6c1.2-1.3,1.2-1.5,0.1-2.8C86.9,64,85.7,62.8,84.4,61.4z"/>
		<path class="st2" d="M82.5,59.9c-1.1-1.1-2.1-2-3.1-3c-3,3-6.1,6.2-9.4,9.4c0.9,0.9,1.9,1.9,3,3C76.3,66.3,79.4,63.1,82.5,59.9z"
			/>
		<path class="st2" d="M37.7,33.8c1,1.1,2,2.1,3,3.1c3.2-3.2,6.3-6.3,9.5-9.5c-1-1-1.9-2-2.9-2.9C46.1,25.1,39.8,31.3,37.7,33.8z"/>
		<path class="st2" d="M21,73.2c0.3,5.5,4.2,10.8,10.4,12.3c1,0.2,2,0.3,3,0.3c0.6,0,1-0.3,1.1-0.9c0.1-0.6-0.2-1.1-0.8-1.3
			c-0.4-0.1-0.9-0.1-1.4-0.1c-5.2-0.4-9.5-4.7-9.9-9.9c0-0.4,0-0.8-0.1-1.2c-0.2-0.8-0.6-1.1-1.3-1c-0.7,0.1-1,0.5-1,1.2
			C21,72.8,21,73,21,73.2z"/>
		<path class="st2" d="M34.3,79.3c0,0,0.3,0,0.5,0c0.6-0.1,1-0.5,0.9-1.1c-0.1-0.4-0.4-0.8-0.7-1c-0.2-0.2-0.5-0.2-0.8-0.2
			c-2.8-0.4-3.9-2.2-4.2-4.2c0-0.3-0.1-0.6-0.2-0.8c-0.2-0.5-0.7-0.6-1.1-0.5c-0.3,0.1-0.7,0.4-0.9,0.7c-0.1,0.2-0.1,0.5-0.1,0.8
			C27.7,76.1,30.9,79.3,34.3,79.3z"/>
	</g>
</g>
</svg>
