<?xml version="1.0" encoding="utf-8"?>
<!-- Generator: Adobe Illustrator 25.1.0, SVG Export Plug-In . SVG Version: 6.00 Build 0)  -->
<svg version="1.1" id="Layer_1" xmlns="http://www.w3.org/2000/svg" xmlns:xlink="http://www.w3.org/1999/xlink" x="0px" y="0px"
	 viewBox="0 0 110 110" style="enable-background:new 0 0 110 110;" xml:space="preserve">
<style type="text/css">
	.st0{fill:#202757;}
	.st1{fill:#FFFFFF;}
	.st2{fill:#2FBEC5;}
</style>
<g>
	<circle class="st0" cx="55" cy="55" r="53.9"/>
	<g>
		<g>
			<g>
				<g>
					<path class="st1" d="M87,34.5c8.1,4.7,12.7,10.8,12.8,17.5c0.1,5.6-2.8,10.9-8.4,15.3c-1.1-0.6-2.5-1.4-4.1-2.2
						c5.4-3.8,8.2-8.3,8.1-13c-0.1-5.5-4.4-10.7-11.9-14.7c-0.3-0.2-0.6-0.3-0.9-0.5C84.1,36.1,85.6,35.3,87,34.5"/>
				</g>
			</g>
			<g>
				<g>
					<path class="st1" d="M54.2,26.9c10.3-0.1,20.2,1.7,28.2,5.2c-1.5,0.8-3,1.7-4.7,2.6c-7.1-2.6-15.3-3.8-23.5-3.7
						c-8,0.1-16,1.4-22.9,4.1c-1.7-0.9-3.3-1.8-4.8-2.6C34.4,29,44,27,54.2,26.9"/>
				</g>
			</g>
			<g>
				<g>
					<path class="st1" d="M22.2,35c1.5,0.8,2.9,1.6,4.4,2.4c-0.4,0.2-0.8,0.4-1.2,0.6c-7.2,4.1-11.1,9.3-10.9,14.8
						c0.1,4.7,3.3,9.3,9,13c-1.6,0.9-2.9,1.7-4,2.3c-5.9-4.3-9.2-9.6-9.4-15.3C10,46.1,14.2,39.8,22.2,35"/>
				</g>
			</g>
			<g>
				<g>
					<path class="st1" d="M83.2,67.5c1.6,0.9,3.1,1.7,4.4,2.4c-0.3,0.2-0.5,0.3-0.8,0.5c-8.2,4.7-19.3,7.3-31,7.4
						c-11.8,0.1-23-2.3-31.5-6.8c-0.2-0.1-0.5-0.3-0.7-0.4c1.3-0.7,2.7-1.6,4.3-2.5c7.9,3.8,17.9,5.6,27.8,5.6
						C65.6,73.6,75.5,71.5,83.2,67.5"/>
				</g>
			</g>
		</g>
	</g>
	<g>
		<path class="st1" d="M31.5,60c-0.4-0.1-0.8-0.2-1.2-0.4c-0.7-0.3-1-1-0.9-1.8c0.1-0.7,0.6-1.4,1.2-1.5c0.2,0,0.4,0,0.6,0
			c5.5,0,41.8,0,49.9,0c0.4,0,0.9,0,1.3,0c0.7,0.1,1.3,0.7,1.4,1.6c0.1,0.7-0.4,1.7-1.1,1.8c-1,0.2-1.8,0.9-2.6,1.5
			c-3.8,2.7-7.9,4.2-12.3,4.2c-4.3,0-8.5,0.3-12.8,0.2c-4.6-0.1-9.3-0.3-13.9-0.6c-2-0.1-4-0.5-5.9-0.9c-1.6-0.3-2.7-1.4-3.3-3.2
			C31.7,60.6,31.6,60.4,31.5,60z"/>
		<g>
			<path class="st1" d="M65.3,43.2C65.3,43.2,65.3,43.2,65.3,43.2c-1.3-1.2-2.6-2.5-3.9-3.7c-0.2-0.2-0.6-0.4-0.8-0.3
				c-1.8,0.5-3.5,1-5.3,1.5c0.3,1.4,0.1,0.8,0.4,2c0.9-0.3,1.8-0.4,2.6-0.8c1.1-0.5,2.2,1.2,2.9,2.4l0,0l0.5,0.7
				c-2.7,1.2-4.4,3-5.8,4.8c-1.5,1.8-3,3.5-5.6,4.6h6.7c2.1,0,4.2,0,6.2,0c5.5,0,10.9,0,16.4,0C75.6,49.2,70.6,46,65.3,43.2z"/>
			<path class="st2" d="M55.3,49.2c0.5-0.6,1-1.1,1.5-1.7c-2.8,1.2-5.6,1.9-8.7,1.6c-0.4,0-0.8-0.1-1.2-0.1
				c-0.1-0.1-0.2-0.1-0.3-0.2c-0.6-0.3-1.3-0.8-1.7-1.4c-0.9-1.2-1.9-1.6-3.1-1.7c-1-0.1-2,0.1-2.9,0c-1.6-0.2-2.5,0.7-3.2,2.2
				c-0.9,2-1.6,4.2-2,6.6c4.6,0,9,0,13.5,0C51.6,53.7,53.4,51.5,55.3,49.2z"/>
		</g>
	</g>
	<path d="M54.1,52.1h1.8c0,0.2-0.1,0.4-0.1,0.4c-0.6,0-1.1,0-1.7,0V52.1z"/>
</g>
</svg>
