<?xml version="1.0" encoding="utf-8"?>
<!-- Generator: Adobe Illustrator 25.1.0, SVG Export Plug-In . SVG Version: 6.00 Build 0)  -->
<svg version="1.1" id="Layer_1" xmlns="http://www.w3.org/2000/svg" xmlns:xlink="http://www.w3.org/1999/xlink" x="0px" y="0px"
	 viewBox="0 0 110 110" style="enable-background:new 0 0 110 110;" xml:space="preserve">
<style type="text/css">
	.st0{fill:#202757;}
	.st1{fill:#2FBEC5;}
	.st2{fill:#FFFFFF;}
</style>
<g>
	<circle class="st0" cx="55" cy="55" r="53.9"/>
	<g>
		<path class="st1" d="M71.5,52.5c4.1,0.2,8,2.4,10.4,6.9c2.5,4.8,2,9.6-1,14c-1.1,1.6-2.5,3.1-3.8,4.6c-2.2,2.5-4.3,5.1-5.7,8.2
			c-0.2,0.4-0.6,0.8-0.9,0.9c-0.3,0.1-0.8-0.3-0.9-0.6c-1.7-4.2-4.8-7.3-7.7-10.6c-2.2-2.5-3.8-5.2-4.2-8.6
			C56.6,59.5,62.6,52.6,71.5,52.5 M77.2,65.4c0-3.7-2.9-6.8-6.7-6.8c-3.8-0.1-6.9,3-7,6.7c0,3.8,3,7,6.8,7
			C74.1,72.3,77.2,69.2,77.2,65.4"/>
		<path class="st2" d="M55.1,65.1c-0.4-0.1-0.8-0.1-1.2-0.2c-0.3-0.1-0.7-0.7-0.6-0.9c0.1-0.3,0.6-0.8,0.9-0.8c0.3,0,0.7,0,1,0.1
			c0.3-2.1,1.1-4,2.2-5.8V31.8h0v-5.3c-0.7,0.2-1.1,0.3-1.5,0.5c-4.2,1.8-8.3,3.6-12.5,5.2c-1.2,0.5-1.5,1.1-1.5,2.3
			c0,13.7,0,27.3,0,41c0,0.6,0.1,1.1,0.1,1.8c0.4-0.1,0.7-0.2,0.9-0.3c4.4-1.9,8.8-3.7,13.3-5.6c-0.5-1.3-0.9-2.6-1.1-4
			C55.1,66.6,55,65.8,55.1,65.1 M45.5,58.7c-0.8-0.5-1.5-1.1-2.1-1.7c-0.1-0.1-0.1-0.7,0.1-0.9c0.2-0.2,0.7-0.4,0.8-0.3
			c0.8,0.5,1.5,1.2,2.3,1.8c0.1,0.1,0.1,0.2,0.1,0.4C46.6,58.4,45.9,58.9,45.5,58.7 M50.2,62.5c-0.8-0.5-1.5-1-2.1-1.7
			c-0.4-0.4-0.1-1.1,0.5-1.2c0.7-0.2,2.7,1.3,2.7,2.1C51.2,62.3,50.6,62.8,50.2,62.5"/>
		<path class="st2" d="M22.4,70.9c5.5,2.2,11,4.3,16.7,6.5V32.8c-5.5-2.2-11-4.3-16.7-6.5V70.9z M33.3,49.7c0.6-0.8,1.4-0.3,2.1-0.1
			c0.1,0,0.3,0.1,0.4,0.2c0.3,0.3,0.9,0.8,0.8,1c-0.2,0.4-0.6,0.7-1,1c-0.1,0.1-0.4,0-1,0.1c-0.3-0.2-0.9-0.4-1.4-0.9
			C33,50.7,33.1,49.9,33.3,49.7 M29,51.5c0.3-0.3,0.7-0.5,1.1-0.7c0.5-0.2,1.1,0.3,1.1,1.1c-0.3,0.3-0.7,0.7-1.1,1
			c-1.2,0.9-1.8,1.1-2.1,0.4C27.5,52.3,28.5,52,29,51.5 M25.5,54.9c0.3,0,0.8,0.4,0.9,0.7c0.2,0.6-1.5,2.5-2.4,2.5
			c-0.1-0.2-0.5-0.5-0.5-0.8C23.4,56.6,24.8,54.9,25.5,54.9"/>
		<path class="st2" d="M72.2,32.6v17.8c5,0.3,9.2,3.1,11.6,7.8c2.4,4.7,2.4,9.5,0,14c1.3-0.5,2.6-1.1,3.8-1.7V26.1
			C82.4,28.3,77.3,30.4,72.2,32.6 M75,50.1c-0.4,0.4-1.3-0.3-1-0.9c0.4-0.9,1-1.7,1.6-2.3c0.4-0.4,1.2,0.2,1.2,1.2
			C76.3,48.6,75.7,49.5,75,50.1 M80.9,42.7c-0.6,0.7-1.3,1.4-2,2c-0.1,0.1-0.9-0.3-1-0.5c-0.3-0.7,1.4-2.6,2.2-2.6
			C80.6,41.7,81.2,42.4,80.9,42.7 M85.9,39.4c-0.6,0.4-1.2,0.8-1.9,1c-0.3,0.1-0.8-0.2-1.1-0.5c-0.1-0.2,0.1-0.8,0.3-1
			c0.6-0.5,1.3-0.9,2-1.1c0.6-0.2,0.9,0.2,1.1,0.9C86.3,38.9,86.1,39.3,85.9,39.4"/>
		<path class="st2" d="M68.1,31.7c-2-1.4-3.9-2.8-5.9-4.2c-0.4-0.3-0.9-0.6-1.6-1v2.4c0,7.7,0,15.5,0,23.2c0,0.5,0,1-0.1,1.4v0.8
			c2.4-2,5.5-3.3,8.9-3.6V33.1C69.1,32.6,68.7,32.1,68.1,31.7"/>
	</g>
</g>
</svg>
