<?xml version="1.0" encoding="utf-8"?>
<!-- Generator: Adobe Illustrator 25.1.0, SVG Export Plug-In . SVG Version: 6.00 Build 0)  -->
<svg version="1.1" id="Layer_1" xmlns="http://www.w3.org/2000/svg" xmlns:xlink="http://www.w3.org/1999/xlink" x="0px" y="0px"
	 viewBox="0 0 110 110" style="enable-background:new 0 0 110 110;" xml:space="preserve">
<style type="text/css">
	.st0{fill:#202757;}
	.st1{fill:#FFFFFF;}
	.st2{fill:#2FBEC5;}
</style>
<g>
	<circle class="st0" cx="55" cy="55" r="53.9"/>
	<g>
		<path class="st1" d="M38.5,28.5c2.2,3.7,4.3,7.4,6.5,11.2c-0.5,0.5-1,1.1-1.6,1.6c-5,4.5-7.3,12.6-3.7,19.7c0.1,0.3,0.3,0.6,0.5,1
			c-1.6,1.6-3.8,2.3-5.7,3.5c-1.8,1.2-3.8,2.2-5.6,3.2C20,54.1,26.4,35.5,38.5,28.5"/>
		<path class="st1" d="M71.6,28.6c12.3,6.6,18.3,26.3,9.5,40c-3.7-2.1-7.4-4.2-11.2-6.4c1.9-3.9,2.9-7.8,1.9-12.1
			c-1-4.3-3.3-7.7-6.8-10.3c2.1-3.7,4.1-7.2,6.1-10.6C71.3,28.9,71.5,28.8,71.6,28.6"/>
		<path class="st2" d="M63.6,38.8c-5.7-3.1-11.3-3.1-17,0c-2.2-3.7-4.3-7.5-6.5-11.2c7.7-5.3,21.2-5.8,30-0.1
			C67.9,31.2,65.7,34.9,63.6,38.8"/>
		<path class="st1" d="M55.2,38.5c0.4,3.3,0.7,6.5,1.1,9.8c0.4,3.6,0.9,7.2,1.3,10.8c0.4,3.6,0.8,7.2,1.1,10.8
			c0.2,1.6,0.4,3.2,0.5,4.8c0.1,1.8-0.9,3.1-2.6,3.7c-1.5,0.6-3.6,0.2-4.7-1.1c-0.7-0.8-1.1-1.8-1-2.9c0.2-2.2,0.4-4.5,0.6-6.7
			c0.4-3.7,0.9-7.4,1.3-11c0.5-3.8,0.9-7.7,1.3-11.5c0.3-2.2,0.5-4.5,0.7-6.7C55,38.5,55.1,38.5,55.2,38.5 M55,76.2
			c1.1,0,1.7-0.6,1.7-1.6c0-0.9-0.7-1.8-1.5-1.8c-1-0.1-1.8,0.8-1.8,1.8C53.3,75.6,54,76.2,55,76.2"/>
		<path class="st1" d="M25.6,70.1c-2.9-5.1-4.5-10.9-4.4-17.1C21.5,35,36.6,19.6,55.4,19.8C73.4,19.9,89,35,88.8,53.9
			c-0.1,6-1.7,11.6-4.5,16.4l3,1.7c3-5.4,4.8-11.6,4.8-18.3c0.1-20.9-16.8-37.4-37.5-37.2C34.1,16.7,18.1,33,17.9,53.4
			c0,6.7,1.8,13,4.8,18.4L25.6,70.1z"/>
	</g>
</g>
</svg>
