<?xml version="1.0" encoding="utf-8"?>
<!-- Generator: Adobe Illustrator 25.1.0, SVG Export Plug-In . SVG Version: 6.00 Build 0)  -->
<svg version="1.1" id="Layer_1" xmlns="http://www.w3.org/2000/svg" xmlns:xlink="http://www.w3.org/1999/xlink" x="0px" y="0px"
	 viewBox="0 0 110 110" style="enable-background:new 0 0 110 110;" xml:space="preserve">
<style type="text/css">
	.st0{fill:#202757;}
	.st1{fill:#FFFFFF;}
	.st2{fill:#2FBEC5;}
</style>
<g>
	<circle class="st0" cx="55" cy="55" r="53.9"/>
	<g>
		<path class="st1" d="M49.6,26.5c0.2-1.2,0.2-2.2,0-3.1c-0.8-0.4-1.5-0.2-2.3-0.2c-0.8-0.1-1.5,0.1-2.5-0.3c-0.2-2.1-0.1-4.3,0-6.5
			c1.5-0.4,14.9-0.5,17.1-0.2c0.4,1.4,0.5,4.7,0.1,6.7c-1.4,0.5-3,0-4.6,0.3c-0.4,1-0.2,2-0.1,3.2c8.8,1.5,16.1,5.5,21.4,12.7
			c3,4.1,4.8,8.7,5.7,13.7c0.8,4.6,0.3,9-0.9,13.5c-3.8,13.4-16.8,23.8-32.9,22.4c-13.7-1.2-25.6-11.3-28-26.4
			c-1.4-8.7,0.7-16.6,6-23.7C33.8,31.7,40.9,27.9,49.6,26.5z M80.8,57.8C81,43,69.2,30.2,53.6,30.1C37.9,30,26.1,42.8,25.9,57.3
			C25.7,72,37.6,85.1,53.3,85.1C69,85.2,80.9,72.2,80.8,57.8z"/>
		<path class="st1" d="M70.5,27.9c1.8-1.8,3.4-3.4,5.1-5.2c5,3.1,9,7.1,12.3,12.2c-1.6,1.8-3.3,3.4-5.1,5.2
			C79.6,35,75.6,31,70.5,27.9z"/>
		<path class="st1" d="M58.1,79.1c-2.4-6.4-4.9-12.9-7.2-19.4c-0.9-2.5,0.7-4.8,3.2-5.2c2.5-0.4,4.8,1.2,4.8,3.8
			c0.1,5.4-0.1,10.7-0.1,16.1c0,1.5-0.1,3.1-0.2,4.6C58.4,79,58.2,79,58.1,79.1z"/>
		<path class="st2" d="M52.4,74.9c-1.7-4.5-3.5-9.2-5.2-13.9c-0.8-2.2-0.6-4.5,0.6-6.4c1.2-2,3.2-3.4,5.6-3.8
			c0.4-0.1,0.8-0.1,1.2-0.1c-0.6-6.2-1-11.6-1-14c0-0.4,0-0.9-0.2-1.4c-7.3-0.7-15.7,4.3-19.7,11.4c-4.2,7.3-3.2,17,0,21.5
			c0.9,1.7,1.9,3.3,3.2,4.6c4.7,5.2,12.1,7.6,17.5,7.3C53.6,78.3,53,76.6,52.4,74.9z"/>
	</g>
</g>
</svg>
