<?xml version="1.0" encoding="utf-8"?>
<!-- Generator: Adobe Illustrator 25.1.0, SVG Export Plug-In . SVG Version: 6.00 Build 0)  -->
<svg version="1.1" id="Layer_1" xmlns="http://www.w3.org/2000/svg" xmlns:xlink="http://www.w3.org/1999/xlink" x="0px" y="0px"
	 viewBox="0 0 110 110" style="enable-background:new 0 0 110 110;" xml:space="preserve">
<style type="text/css">
	.st0{fill:#202757;}
	.st1{fill:#FFFFFF;}
	.st2{fill:#2FBEC5;}
</style>
<g>
	<circle class="st0" cx="55" cy="55" r="53.9"/>
	<g>
		<path class="st1" d="M71.2,20.1c-5.1,9.9-5.4,19.8,0.2,29.4c5.5,9.6,14.3,14.3,25.3,14.8c-5.5,10.8-19.6,17.1-31.4,14
			c0.9-0.6,1.9-1,2.7-1.7c5.4-4.2,4.4-12.4-1.7-15.2c-0.8-0.4-1.2-0.8-1.5-1.6c-2.3-6.1-9.6-9-15.6-6.3c-0.4,0.2-1,0.3-1.2,0.1
			c-1.8-1.3-3.8-1.9-5.9-2.2C40.4,36.2,53,20.1,71.2,20.1z"/>
		<path class="st2" d="M48,57c2.1-1.6,4.4-2.3,7-2c3.6,0.4,7,3.3,7.8,6.8c0.2,0.8,0.5,1.3,1.4,1.5c3.3,0.9,5.3,4,4.8,7.3
			c-0.5,3.2-3.4,5.6-6.7,5.5c-0.8,0-1.2,0.2-1.6,0.8c-2.7,4.1-7.9,5-11.9,2.1c-0.6-0.4-1-0.5-1.7-0.2c-3.3,1.7-7.1,1-9.7-1.8
			c-0.5-0.5-0.9-0.7-1.7-0.5c-4.3,1-8.8-1.8-9.8-6.1c-1-4.3,1.7-8.8,6.1-9.8c1-0.2,1.5-0.6,1.9-1.6c2.2-5.6,9.2-6.9,13.5-2.7
			C47.5,56.6,47.7,56.8,48,57z"/>
		<path class="st2" d="M33.2,64.7c0,4.6-3.8,8.4-8.4,8.4c-4.6,0-8.4-3.8-8.4-8.4c0-4.6,3.8-8.4,8.4-8.4C29.4,56.2,33.2,60,33.2,64.7
			z"/>
	</g>
</g>
</svg>
