<?xml version="1.0" encoding="utf-8"?>
<!-- Generator: Adobe Illustrator 25.1.0, SVG Export Plug-In . SVG Version: 6.00 Build 0)  -->
<svg version="1.1" id="Layer_1" xmlns="http://www.w3.org/2000/svg" xmlns:xlink="http://www.w3.org/1999/xlink" x="0px" y="0px"
	 viewBox="0 0 110 110" style="enable-background:new 0 0 110 110;" xml:space="preserve">
<style type="text/css">
	.st0{fill:#FFFFFF;}
	.st1{fill:#202757;}
	.st2{fill:#2FBEC5;}
</style>
<g>
	<path class="st0" d="M85.3,44.2c2.3,0,4.1,1,5.6,2.7v-7.1c-1.6-0.8-3.5-1.3-5.6-1.3c-5,0-8.7,1.7-11.9,4.3c0.8,1.6,1.7,3.4,2.5,5.3
		C78.6,45.5,81.4,44.2,85.3,44.2"/>
	<circle class="st1" cx="55" cy="55" r="53.9"/>
	<polygon class="st0" points="91,71.8 32.4,71.8 32.4,15 38.5,15 38.5,65.7 91,65.7 	"/>
	<path class="st0" d="M64,33.5c-1.3,1.9-2.6,3.8-4.1,5.8c-7.2,9.8-19.1,12.4-25,12.4v5.6c8.6,0,21.5-3.8,29.5-14.7
		c1.5-2.1,2.9-4,4.2-6c0.2-0.4,0.5-0.7,0.7-1c-0.9-2.4-1.7-4.5-2.5-6.3C65.9,30.7,65,32.1,64,33.5"/>
	<path class="st2" d="M84.3,56.8c-3.1-1.5-5.6-4.9-7.3-10c-5.5-16-11.1-23.4-17.8-23.4c-5.7,0-10.4,4.9-15.1,15.8
		c-1.3,3.1-2.7,4.9-4,6v6.5c2.9-1.1,6.3-3.8,9.1-10.4c3.5-8.2,6.9-12.4,9.9-12.4c1.7,0,6.4,1.9,12.4,19.6C73.9,55.3,77.4,59.8,82,62
		c2.3,1.1,4.4,1.4,6.2,1.4c1,0,1.9-0.1,2.8-0.2v-5.6C89.7,57.7,86.8,58,84.3,56.8"/>
</g>
</svg>
