<?xml version="1.0" encoding="utf-8"?>
<!-- Generator: Adobe Illustrator 25.1.0, SVG Export Plug-In . SVG Version: 6.00 Build 0)  -->
<svg version="1.1" id="Layer_1" xmlns="http://www.w3.org/2000/svg" xmlns:xlink="http://www.w3.org/1999/xlink" x="0px" y="0px"
	 viewBox="0 0 110 110" style="enable-background:new 0 0 110 110;" xml:space="preserve">
<style type="text/css">
	.st0{fill:#202757;}
	.st1{fill:#FFFFFF;}
	.st2{fill:#2FBEC5;}
</style>
<g>
	<circle class="st0" cx="55" cy="55" r="53.9"/>
	<g>
		<path class="st1" d="M58.2,49.5l15.3-15.3c-4.9-4.5-11.4-7.2-18.5-7.2c-2,0-4,0.2-5.9,0.6L58.2,49.5z"/>
		<path class="st1" d="M55.2,57.4H27.6C29.1,71.3,40.8,82.1,55,82.1c6.9,0,13.2-2.6,18.1-6.8L55.2,57.4z"/>
		<path class="st2" d="M76.8,37.8L59.6,55l16.8,16.8c3.8-4.7,6.1-10.7,6.1-17.2C82.5,48.3,80.4,42.5,76.8,37.8"/>
		<path class="st1" d="M54.2,52.6l-9.8-23.4C35,33,28.3,42,27.5,52.6H54.2z"/>
	</g>
</g>
</svg>
