<?xml version="1.0" encoding="utf-8"?>
<!-- Generator: Adobe Illustrator 25.1.0, SVG Export Plug-In . SVG Version: 6.00 Build 0)  -->
<svg version="1.1" id="Layer_1" xmlns="http://www.w3.org/2000/svg" xmlns:xlink="http://www.w3.org/1999/xlink" x="0px" y="0px"
	 viewBox="0 0 110 110" style="enable-background:new 0 0 110 110;" xml:space="preserve">
<style type="text/css">
	.st0{fill:#202757;}
	.st1{fill:#FFFFFF;}
	.st2{fill:#2FBEC5;}
</style>
<circle class="st0" cx="55" cy="55" r="53.9"/>
<g>
	<path class="st1" d="M52.6,82.5c-0.6,0-1.1,0-1.6,0c-1.6-0.5-3.2-0.9-4.7-1.4c-2.2-0.7-2.3-1.2-2.2-3.5c0.1-1.1-0.2-2.4-0.7-3.3
		c-1.7-2.7-4.6-3.5-7.5-2.3c-1.8,0.7-2.2,0.6-3.3-1c-0.7-1-1.3-2.1-1.9-3.1c-1.6-2.9-1.6-2.9,1.1-5c1.6-1.3,2.1-3.1,1.8-5
		c-0.3-1.9-1.2-3.4-3.2-4.1c-1-0.4-1.9-1-2.9-1.5l0-1.4c0.4-1.5,0.8-3.1,1.2-4.6c0.7-2.4,1-2.7,3.5-2.3c1.7,0.3,3.1-0.3,4.2-1.5
		c1.8-2,2.9-4,1.7-6.8c-0.8-1.8-0.6-2.2,1.1-3.2c1.2-0.8,2.5-1.6,3.8-2.2c2-1.1,2.5-1,3.8,0.9c1.5,2,3.5,2,5.6,1.7
		c1.9-0.3,3.5-1,4.2-3.1c0.3-0.8,0.9-1.5,1.3-2.2c0.4,0,0.7,0,1.1,0c1.6,0.4,3.3,0.8,4.9,1.3c2.5,0.8,2.6,0.9,2.3,3.5
		c-0.2,1.5,0.3,2.7,1.2,3.8c2.1,2.3,4.3,2.9,7.2,1.8c1.2-0.5,2.2-0.4,2.9,0.9c0.8,1.5,1.8,2.9,2.6,4.5c0.9,1.7,0.7,2-0.8,3.4
		c-0.8,0.7-1.5,1.7-1.7,2.6c-0.5,1.8-0.2,3.6,0.8,5.3c0.3,0.6,0.9,1.2,1.5,1.5c0.9,0.6,1.9,1,2.9,1.4c0,0.5,0,0.9,0,1.4
		c-0.5,1.7-0.9,3.4-1.5,5.1c-0.7,2.1-1.1,2.4-3.3,2c-1.5-0.3-2.7,0.1-3.8,1c-2.5,2-3.1,4.4-1.8,7.3c0.7,1.6,0.7,2.1-0.8,3.1
		c-1.5,0.9-3,1.8-4.5,2.6c-1.9,0.9-2.2,0.9-3.3-0.9c-0.8-1.2-1.9-1.8-3.3-2c-3.2-0.4-5.5,0.9-6.7,3.9C53.3,81.4,52.9,82,52.6,82.5
		 M55.8,73.8c10.6-0.3,18.9-9,18.6-19.5c-0.2-10.5-9-18.8-19.7-18.5C44.5,36,36.1,44.9,36.4,55.3C36.7,65.7,45.4,74.1,55.8,73.8"/>
	<path class="st2" d="M66.6,45.7c-1.2,0.9-2.4,1.7-3.5,2.6c-0.2-0.2-0.3-0.4-0.5-0.6c-1.7-2.3-3.9-3.7-6.7-4.4
		c-1.1-0.3-2.3-0.3-3.4-0.2c-2.1,0.1-4.1,0.8-5.9,2c-2.1,1.4-3.6,3.2-4.6,5.4c-0.5,1.1-0.9,2.3-1,3.6c0,0.3-0.1,0.6-0.1,0.9
		c0-0.3,0-0.6,0-0.9c0-1.5,0.2-3,0.7-4.4c0.5-1.4,1.2-2.7,2-3.8c1.3-1.7,2.9-3,4.8-4c1.3-0.7,2.6-1.1,4.1-1.4
		c1.2-0.2,2.3-0.3,3.5-0.2c2.5,0.2,4.8,0.9,6.9,2.2c1.1,0.7,2.1,1.5,3,2.5C66.2,45.2,66.4,45.5,66.6,45.7"/>
	<path class="st2" d="M70.4,57.6c0,0.1,0,0.2,0,0.3c-0.1,0-0.3,0-0.4-0.1l-3.5-0.5c-0.9-0.1-1.8-0.3-2.7-0.4
		c-1.1-0.2-2.3-0.3-3.4-0.5c-1-0.1-2.1-0.3-3.1-0.4c-0.5-0.1-0.9-0.1-1.3-0.2c-0.1,0-0.1,0-0.2,0.1c-0.5,0.6-1.1,0.8-1.8,0.6
		c-0.6-0.2-1.1-0.7-1.3-1.4c-0.1-0.9,0.4-1.7,1.3-1.9c0.9-0.2,1.7,0.2,2,1.1c0,0.1,0.1,0.2,0.2,0.2c1.6,0.3,3.3,0.7,4.9,1
		c2.2,0.5,4.3,0.9,6.5,1.4C68.5,57.2,69.4,57.4,70.4,57.6C70.4,57.6,70.4,57.6,70.4,57.6"/>
	<path class="st2" d="M63.7,49.4c-0.1-0.2-0.2-0.4-0.3-0.5c1.2-0.8,2.4-1.6,3.7-2.4c0.2,0.3,0.3,0.5,0.5,0.8
		C66.3,47.9,65,48.7,63.7,49.4"/>
	<path class="st2" d="M64.7,51.7c-0.1-0.2-0.1-0.4-0.2-0.6c1.4-0.5,2.7-1,4.1-1.5c0.1,0.3,0.2,0.6,0.3,0.8
		C67.5,50.9,66.1,51.3,64.7,51.7"/>
	<path class="st2" d="M64.3,50.5c-0.1-0.2-0.2-0.4-0.3-0.6c1.3-0.7,2.6-1.3,3.9-2c0.1,0.3,0.2,0.5,0.4,0.8
		C67,49.4,65.6,49.9,64.3,50.5"/>
	<path class="st2" d="M69.2,51.3c0.1,0.3,0.1,0.6,0.2,0.9c-1.4,0.3-2.9,0.5-4.3,0.8c0-0.2-0.1-0.4-0.1-0.6
		C66.3,52,67.7,51.6,69.2,51.3"/>
	<path class="st2" d="M69.5,53c0,0.3,0.1,0.6,0.1,0.9c-1.5,0.1-2.9,0.2-4.4,0.3c0-0.2,0-0.4-0.1-0.6C66.6,53.4,68,53.2,69.5,53"/>
	<path class="st2" d="M65.2,55.4L65.2,55.4c0-0.2,0-0.4,0-0.6c1.5,0,2.9,0,4.4-0.1c0,0.3,0,0.6,0,0.9C68.1,55.6,66.7,55.5,65.2,55.4
		"/>
</g>
</svg>
