<?xml version="1.0" encoding="utf-8"?>
<!-- Generator: Adobe Illustrator 25.1.0, SVG Export Plug-In . SVG Version: 6.00 Build 0)  -->
<svg version="1.1" id="Layer_1" xmlns="http://www.w3.org/2000/svg" xmlns:xlink="http://www.w3.org/1999/xlink" x="0px" y="0px"
	 viewBox="0 0 110 110" style="enable-background:new 0 0 110 110;" xml:space="preserve">
<style type="text/css">
	.st0{fill:#202757;}
	.st1{fill:#FFFFFF;}
	.st2{fill:#2FBEC5;}
</style>
<g>
	<circle class="st0" cx="55" cy="55" r="53.9"/>
	<g>
		<path class="st1" d="M38,78.8h0.5c9.4,0,18.8,0,28.3,0c1.2,0,2.3-0.1,3.4-0.4c0.1,0,0.1,0,0.2,0v3.9h-0.4c-11.1,0-22.2,0-33.3,0
			c-0.2,0-0.4-0.1-0.5-0.2c-2.7-2.7-5.4-5.4-8.1-8.1c-0.1-0.1-0.2-0.3-0.2-0.5c0-15.1,0-30.2,0-45.3v-0.3h42.6v24.3
			c-0.5-0.1-0.9-0.2-1.4-0.3c-0.6-0.1-1.1-0.1-1.7-0.2c-0.2,0-0.3-0.1-0.3-0.3c0-0.1,0-0.2,0-0.3c0-6.5,0-12.9,0-19.4
			c0-0.5,0-0.5-0.5-0.5c-11.6,0-23.2,0-34.8,0h-0.5C31.1,44.8,31,58.4,31,72h7V78.8z"/>
		<path class="st2" d="M82.3,78.6c-1.3,1.2-2.5,2.3-3.8,3.5c-0.6-0.6-1.1-1.1-1.6-1.7c-2.1-2.1-4.1-4.1-6.2-6.2
			c-0.2-0.2-0.4-0.3-0.7-0.1c-6.2,3.2-13.5-0.5-14.8-7.3c-1-5.7,3-11.2,8.7-11.9c6.6-0.8,12.2,4.6,11.5,11.2
			c-0.1,1.4-0.5,2.7-1.2,3.9c-0.1,0.2-0.1,0.4,0.1,0.5c2.5,2.6,5.1,5.2,7.6,7.7C82,78.4,82.1,78.5,82.3,78.6 M65.2,72
			c3.7,0,6.8-3.1,6.8-6.8c0-3.7-3.1-6.8-6.8-6.8c-3.8,0-6.8,3.1-6.8,6.8C58.4,69,61.5,72,65.2,72"/>
		<rect x="60.1" y="34.6" class="st1" width="3.4" height="17"/>
		<path class="st1" d="M34.5,55h17v3.4c-0.1,0-0.2,0-0.4,0c-5.4,0-10.8,0-16.3,0c-0.3,0-0.4-0.1-0.4-0.4C34.6,57,34.5,56,34.5,55"/>
		<rect x="34.6" y="60.1" class="st1" width="17" height="3.4"/>
		<path class="st1" d="M51.6,65.2v3.4h-17c0-0.1,0-0.2,0-0.3c0-0.9,0-1.8,0-2.8c0-0.2,0-0.3,0.3-0.3c5.5,0,11,0,16.4,0
			C51.4,65.2,51.4,65.2,51.6,65.2"/>
		<path class="st1" d="M49.9,38h1.3c0.6,0,1.1,0,1.7,0c0.3,0,0.4,0.1,0.4,0.4c0,1.1,0,2.3,0,3.4v9.3v0.5h-3.4V38z"/>
		<path class="st1" d="M44.8,41.4h3.4c0,0.1,0,0.2,0,0.4c0,3.2,0,6.3,0,9.5c0,0.3-0.1,0.4-0.4,0.4c-1,0-2,0-3,0V41.4z"/>
		<rect x="55" y="41.4" class="st1" width="3.4" height="10.2"/>
		<path class="st1" d="M37.9,44.8v6.8c-0.1,0-0.2,0-0.3,0c-0.9,0-1.9,0-2.8,0c-0.2,0-0.3-0.1-0.3-0.3c0-2.1,0-4.1,0-6.2
			c0-0.1,0-0.3,0.2-0.3C35.8,44.8,36.8,44.8,37.9,44.8"/>
		<path class="st1" d="M39.7,48.1c0-1,0-2,0-3.1c0-0.2,0.1-0.3,0.3-0.3c0.9,0,1.9,0,2.8,0c0.2,0,0.3,0,0.3,0.3c0,2.1,0,4.2,0,6.2
			c0,0.2-0.1,0.3-0.3,0.3c-0.9,0-1.9,0-2.8,0c-0.2,0-0.3-0.1-0.3-0.3C39.7,50.2,39.7,49.2,39.7,48.1"/>
	</g>
</g>
</svg>
