<?xml version="1.0" encoding="utf-8"?>
<!-- Generator: Adobe Illustrator 25.1.0, SVG Export Plug-In . SVG Version: 6.00 Build 0)  -->
<svg version="1.1" id="Layer_1" xmlns="http://www.w3.org/2000/svg" xmlns:xlink="http://www.w3.org/1999/xlink" x="0px" y="0px"
	 viewBox="0 0 110 110" style="enable-background:new 0 0 110 110;" xml:space="preserve">
<style type="text/css">
	.st0{fill:#202757;}
	.st1{fill:#FFFFFF;}
	.st2{fill:#33A5B1;}
</style>
<g>
	<circle class="st0" cx="55" cy="55" r="53.9"/>
	<g>
		<path class="st1" d="M21.1,66.8c4-7.4,8-14.8,12.1-22.1c5.7-10.4,11.5-20.8,17.2-31.2c1.3-2.4,3.1-3.7,5.8-3.7
			c2.7,0,4.5,1.3,5.8,3.7C71.6,30.5,81,47.6,90.5,64.7c0.4,0.7,0.7,1.4,1,2.1v2.5c-1.3,3.7-4,4.9-7.9,4.9c-18.2-0.1-36.4-0.1-54.7,0
			c-3.8,0-6.5-1.2-7.8-4.9V66.8z M56.3,71.2c9.4,0,18.9-0.1,28.3,0.1c2.9,0.1,4.9-2.5,3.2-5.5C78.4,48.9,69,31.9,59.7,14.9
			c-0.8-1.4-1.7-2.3-3.4-2.3c-1.6,0-2.6,0.9-3.3,2.2c-9.4,17-18.7,34-28.2,50.9c-1.7,3,0.2,5.6,3.3,5.6
			C37.5,71.1,46.9,71.2,56.3,71.2z"/>
		<path class="st2" d="M53.4,53.2c-1.7,0-3.2,0-4.8,0c-1.3,0-1.8-0.8-1.3-2.3c1.8-6.2,3.7-12.4,5.5-18.6c0.3-1,0.8-1.5,1.7-1.5
			c2.4,0,4.7,0,7.1,0c1.6,0,2,0.8,1.4,2.5c-1.1,3.4-2.3,6.8-3.4,10.2c-0.1,0.4-0.2,0.7-0.4,1.2c1.7,0,3.2-0.1,4.8,0
			c0.5,0,1.2,0.4,1.4,0.8c0.2,0.4-0.1,1.3-0.4,1.8c-4.4,6.2-8.8,12.4-13.2,18.5c-0.5,0.7-1,1.5-1.9,0.9c-1-0.7-0.6-1.6-0.3-2.5
			c1.1-3.4,2.3-6.8,3.4-10.2C53.2,54,53.3,53.7,53.4,53.2"/>
	</g>
</g>
</svg>
