<?xml version="1.0" encoding="utf-8"?>
<!-- Generator: Adobe Illustrator 25.1.0, SVG Export Plug-In . SVG Version: 6.00 Build 0)  -->
<svg version="1.1" id="Layer_1" xmlns="http://www.w3.org/2000/svg" xmlns:xlink="http://www.w3.org/1999/xlink" x="0px" y="0px"
	 viewBox="0 0 139.2 139.2" style="enable-background:new 0 0 139.2 139.2;" xml:space="preserve">
<style type="text/css">
	.st0{fill:#FFFFFF;}
</style>
<g>
	<path class="st0" d="M69.6,136.4c-36.8,0-66.8-30-66.8-66.8c0-36.8,30-66.8,66.8-66.8c36.8,0,66.8,30,66.8,66.8
		C136.4,106.4,106.4,136.4,69.6,136.4 M69.6,8.1C35.7,8.1,8.1,35.7,8.1,69.6c0,33.9,27.6,61.5,61.5,61.5s61.5-27.6,61.5-61.5
		C131.1,35.7,103.5,8.1,69.6,8.1"/>
	<path class="st0" d="M42.8,48.1c0,5.1,0,9.9,0,14.6c0,8.2,0,16.5,0,24.7c0,1.3,0.3,2,1.6,2.4c2.8,1.1,5.6,2.3,8.4,3.3
		c1.7,0.6,2.7,1.7,2,3.4c-0.7,1.8-2.1,1.8-3.8,1.1c-3.6-1.5-7.2-2.9-10.8-4.3c-1.5-0.6-2.2-1.5-2.2-3.1c0-15.1,0-30.2,0-45.2
		c0-2.5,1.4-3.5,3.7-2.6c6.3,2.3,12.6,4.7,18.8,7c1.7,0.6,1.8,2,1.8,3.5c0,12.7,0,25.4,0,38.1c0,1,0,2,0,3.4c3-1.1,5.7-2.1,8.4-3.1
		c2-0.8,4.7-1.1,5.8-2.6c1-1.5,0.4-4.2,0.4-6.3c0-10.5,0-21.1,0-31.6c0-0.8,0-1.6,0-2.7c-2.8,1.1-5.4,2.1-8,3.1
		c-2.1,0.8-3.5,0.5-4-1.1c-0.6-1.9,0.5-2.8,2.1-3.4c3.5-1.4,6.9-2.9,10.5-4.1c1.1-0.4,2.5-0.5,3.5-0.1c6.1,2.2,12.2,4.5,18.2,6.8
		c1.4,0.5,2,1.4,2,2.9c0,15.2,0,30.3,0,45.5c0,2.4-1.5,3.3-4,2.4c-5.4-2-10.8-4.1-16.2-6c-1-0.3-2.3-0.4-3.2,0
		C72.6,96,67.5,98,62.4,99.9c-3.7,1.4-4.9,0.6-4.9-3.4c0-13.5,0-27,0-40.5c0-1.8-0.4-2.7-2.2-3.3C51.2,51.3,47.2,49.8,42.8,48.1
		 M96.4,94.7c0-13.6,0-26.8-0.1-39.9c0-0.5-0.8-1.3-1.3-1.5c-4-1.6-8.1-3.1-12.1-4.6c-0.3-0.1-0.7,0-1.1,0c0,13.3,0,26.4,0,39.5
		c0,0.5,0.5,1.3,0.9,1.4C87.2,91.2,91.6,92.8,96.4,94.7"/>
</g>
</svg>
