<?xml version="1.0" encoding="utf-8"?>
<!-- Generator: Adobe Illustrator 25.1.0, SVG Export Plug-In . SVG Version: 6.00 Build 0)  -->
<svg version="1.1" id="Layer_1" xmlns="http://www.w3.org/2000/svg" xmlns:xlink="http://www.w3.org/1999/xlink" x="0px" y="0px"
	 viewBox="0 0 139.2 139.2" style="enable-background:new 0 0 139.2 139.2;" xml:space="preserve">
<style type="text/css">
	.st0{fill:#FFFFFF;}
	.st1{fill:#75CCD5;}
</style>
<g>
	<path class="st0" d="M39,33.9c-0.8,1.2-0.8,2.4-0.8,3.7c0,17.2,0,34.5,0,51.7c0,0.6,0,1.3,0,1.9c0.1,1.4,0.8,2.1,2.2,2.2
		c0.5,0,0.9,0,1.4,0c2.4,0,4.9,0,7.3,0c0.6,0,1.3-0.1,1.9,0.2c0.5,0.4,0.4,1,0.4,1.5c0,1.6,0.1,3.1,0,4.7c0,1.2,0.1,2.3,1.1,3H100
		c0.9-0.8,1.1-1.9,1.1-3.1c0-11.5,0-23,0-34.4c0-5.8,0-11.5,0-17.3c0-0.5,0-0.9,0-1.4c-0.1-1.9-0.8-2.7-2.7-2.7c-2.8,0-5.6,0-8.4,0
		c-0.6,0-1.3,0.1-1.9-0.2c-0.4-0.4-0.3-0.9-0.3-1.3c0-1.8,0-3.6,0-5.4c0-1.1,0.1-2.2-1.1-3c0,0,0,0,0.1-0.1H39z M45.1,89.5
		c-0.7,0-1.4,0.1-2-0.1c-0.9-0.4-0.9-1.2-0.9-2c0-2.2,0-4.4,0-6.6c0-13.6,0-27.1,0-40.7v-1.2c0.6-1.2,1.5-1.2,2.5-1.2
		c1.9,0,3.8,0,5.8,0c10.1,0,20.3,0,30.4,0c0.9,0,1.9-0.1,2.8,1c0.1,16.5,0,33.2,0,49.8c-0.7,1.1-1.5,1-2.2,1c-7,0-14,0-21,0
		C55.4,89.5,50.3,89.5,45.1,89.5 M87.7,91.3c0.1-0.6,0-1.2,0-1.7c0-12.8,0-25.5,0-38.3c0-0.7-0.1-1.5,0.3-2.5c2.5,0,4.9,0,7.4,0
		c1,0,1.4,0.5,1.5,1.6c0.1,0.5,0,1,0,1.6c0,14.9,0,29.8,0,44.8c0,0.5,0.1,1-0.1,1.6c-0.5,0.9-1.5,1-2.4,1c-2.5,0-5,0-7.5,0
		c-9.3,0-18.5,0-27.8,0c-1,0-2,0.1-2.7-0.9c-0.3-1.5-0.1-2.9-0.1-4.3c0.8-0.6,1.5-0.4,2.2-0.4c8.5,0,16.9,0,25.4,0
		c0.6,0,1.2,0,1.7,0C86.9,93.4,87.6,92.7,87.7,91.3"/>
	<path class="st0" d="M69.6,136.4c-36.8,0-66.8-30-66.8-66.8c0-36.8,30-66.8,66.8-66.8c36.8,0,66.8,30,66.8,66.8
		C136.4,106.4,106.4,136.4,69.6,136.4 M69.6,8.1C35.7,8.1,8.1,35.7,8.1,69.6c0,33.9,27.6,61.5,61.5,61.5c33.9,0,61.5-27.6,61.5-61.5
		C131.1,35.7,103.5,8.1,69.6,8.1"/>
	<path class="st1" d="M74.7,55.3l1.6-0.4c0,0,0,0.1-0.1,0.1c-0.3,0.6-0.7,1.2-1.2,1.7c-0.3,0.4-0.7,0.7-1.1,1
		c-0.8,0.7-3.2,1.2-4.4,0.9c-0.7-0.2-1.2-0.5-1.5-1.1c0,0,0,0,0-0.1c-0.1-0.3-0.3-0.6-0.4-1c-0.2-0.5-0.3-3-0.5-5.9
		c-0.5-0.1-0.9-0.2-1.4-0.2h-0.1h0h-0.1c-0.5,0-1,0.1-1.4,0.2c-0.2,2.9-0.3,5.4-0.5,5.9c-0.1,0.3-0.2,0.7-0.4,1c0,0,0,0,0,0.1
		c-0.3,0.6-0.9,1-1.5,1.1c-1.2,0.3-3.6-0.3-4.4-0.9c-0.4-0.3-0.7-0.6-1.1-1c-0.5-0.5-0.9-1.1-1.2-1.7c0,0-0.1-0.1-0.1-0.1l1.6,0.4
		c0,0-2.5-2.5-3.8-3.7v5.5l1.1-1.7c0,0,0,0.1,0.1,0.1c0.4,1,1,2.4,1.6,3.5c0.3,0.5,0.6,0.9,0.9,1.3c0.9,1,1.9,1.8,3.1,2.4
		c1.5,0.9,3,1.8,4.5,2.8c0.6,0.4,1.1,0.8,1.6,1.3c0,0,0.1,0.1,0.1,0.1v0c0,0,0,0,0,0c0,0,0,0,0,0v0c0,0,0.1,0,0.1-0.1
		c0.5-0.4,1.1-0.9,1.6-1.3c1.4-1,2.9-1.9,4.5-2.8c1.1-0.7,2.2-1.5,3.1-2.4c0.3-0.4,0.7-0.8,0.9-1.3c0.7-1.1,1.2-2.4,1.6-3.5
		c0,0,0.1-0.1,0.1-0.1l1.1,1.7v-5.5C77.3,52.9,74.7,55.3,74.7,55.3"/>
	<path class="st0" d="M59.2,57.1c0.2,0.1,0.5,0.2,0.8,0.2c0.7-1.1,1.8-2,3.1-2.5c0.1-0.2,0.1-0.5,0.1-0.8c0-0.2,0.1-1.2,0.1-3.3
		c-3,0.8-5.4,2.6-6.8,5C57.5,56.5,58.4,56.9,59.2,57.1L59.2,57.1z"/>
	<path class="st0" d="M59.4,63.8c-0.3-0.2-0.6-0.4-0.9-0.6c-1.3-0.8-2.4-1.9-3.3-3.1c0,0.3,0,0.6,0,0.8c0,0,0,0.1,0,0.1
		c0,0,0,0,0,0.1c0,0.3,0,0.7,0.1,1.1c0.3,2.7,1.6,4.9,3.4,6.9c1,1.1,6.4,6.3,6.9,6.8v-8.1C62.8,67.8,60.5,66.2,59.4,63.8"/>
	<path class="st0" d="M71.4,57.7C71.4,57.7,71.4,57.7,71.4,57.7c0.1,0,0.2-0.1,0.4-0.1c0.2,0,0.6,0,1.1-0.2c0.2-0.1,0.4-0.2,0.6-0.4
		c0,0,0,0,0.1-0.1c0.2-0.1,0.3-0.3,0.5-0.5c0,0,0.1-0.1,0.1-0.1l0,0c0.2-0.2,0.3-0.4,0.5-0.6c-1.4-2.4-3.7-4.2-6.6-5
		c0.1,1.9,0.2,3.3,0.3,4.1C69.6,55.5,70.7,56.5,71.4,57.7"/>
	<path class="st0" d="M76,61c0-0.2,0-0.4,0-0.7c-0.1,0.2-0.3,0.4-0.5,0.5c-0.9,1-2,1.9-3.3,2.6c-0.1,0.1-0.3,0.2-0.4,0.3
		c-1,2.4-3.4,4.1-6.2,4.1V76c0.5-0.5,5.9-5.8,6.9-6.8c1.8-2,3.1-4.2,3.4-6.9c0-0.4,0.1-0.7,0.1-1.1C76,61.1,76,61.1,76,61
		C76,61.1,76,61,76,61"/>
</g>
</svg>
