<?xml version="1.0" encoding="utf-8"?>
<!-- Generator: Adobe Illustrator 25.1.0, SVG Export Plug-In . SVG Version: 6.00 Build 0)  -->
<svg version="1.1" id="Layer_1" xmlns="http://www.w3.org/2000/svg" xmlns:xlink="http://www.w3.org/1999/xlink" x="0px" y="0px"
	 viewBox="0 0 139.2 139.2" style="enable-background:new 0 0 139.2 139.2;" xml:space="preserve">
<style type="text/css">
	.st0{fill:#FFFFFF;}
</style>
<g>
	<path class="st0" d="M69.6,136.4c-36.8,0-66.8-30-66.8-66.8c0-36.8,30-66.8,66.8-66.8c36.8,0,66.8,30,66.8,66.8
		C136.4,106.4,106.4,136.4,69.6,136.4 M69.6,8.1C35.7,8.1,8.1,35.7,8.1,69.6c0,33.9,27.6,61.5,61.5,61.5c33.9,0,61.5-27.6,61.5-61.5
		C131.1,35.7,103.5,8.1,69.6,8.1"/>
	<path class="st0" d="M33.7,45.5c2.5,2.5,5,5,7.4,7.4c0.5,0.5,1.1,1,1.6,1.6c0.6,0.8,1.3,0.8,2.1,0.6c3.9-1.4,6.6-4.1,7.8-8.1
		c0.2-0.6,0.1-1.1-0.4-1.6c-2.8-2.8-5.6-5.6-8.4-8.3c-0.2-0.2-0.5-0.4-0.8-0.6c0-0.1,0.1-0.3,0.1-0.4c1.3-0.2,2.5-0.6,3.8-0.7
		c8-0.5,14.9,4.9,16.2,12.7c0.2,1.1,0.2,2.3,0.2,3.4c-0.2,2.6,0.6,4.7,2.4,6.5c8.7,8.7,17.3,17.4,26,26c2.3,2.3,4.6,4.6,6.9,6.9
		c3,3,3,7.5,0.1,10.4c-2.8,2.8-7.3,2.8-10.2-0.2C77.6,90.4,66.8,79.7,56.1,68.9c-2.1-2.2-4.5-3.2-7.6-3.1c-7.9,0.3-14.3-5-15.6-12.9
		C32.5,50.5,32.8,48.1,33.7,45.5 M96,95.7c0-1.6-1.3-2.9-2.8-2.9c-1.5,0-3,1.4-2.9,2.9c0,1.6,1.3,2.9,2.9,2.9
		C94.8,98.6,96,97.3,96,95.7"/>
	<path class="st0" d="M85.2,70.2C84,69.1,83,68.1,81.9,67c1.8-1.7,3.5-3.5,5.3-5.2c3.5-3.5,7-7,10.5-10.5c0.2-0.2,0.4-0.3,0.5-0.5
		c0.5-0.6,0.5-1.2,0-1.7c-0.5-0.6-1.2-0.6-1.7,0c-1,0.9-1.9,1.9-2.8,2.8c-4.3,4.3-8.6,8.6-12.9,12.9c-0.2,0.2-0.5,0.4-0.6,0.6
		c-0.9-0.9-1.8-1.8-2.8-2.7c2.7-2.6,5.3-5.3,8-8c2.6-2.6,5.2-5.2,7.8-7.8c0.2-0.2,0.4-0.4,0.6-0.6c0.4-0.5,0.4-1.1-0.1-1.6
		c-0.5-0.5-1.1-0.5-1.7-0.1c-0.2,0.2-0.4,0.4-0.6,0.6c-5.1,5.1-10.2,10.2-15.3,15.4c-0.1,0.1-0.3,0.3-0.4,0.4
		c-1.1-1.1-2.2-2.2-3.3-3.4c1.5-1.5,3.2-3.1,4.9-4.8c4.1-4.1,8.1-8.2,12.2-12.2c2.5-2.5,5.6-3.3,9-2.3c3.3,1,5.4,3.2,6.2,6.6
		c0.8,3.3-0.2,6.2-2.6,8.5c-3.8,3.8-7.6,7.7-11.5,11.5C88.8,66.6,87,68.4,85.2,70.2"/>
	<path class="st0" d="M63.3,83.6c-2,2-4.1,4-6.1,6c-1.7,1.7-3.4,3.5-5.1,5.1c-1.5,1.4-2.8,3-3.7,4.9c-0.2,0.3-0.5,0.6-0.8,0.8
		c-1.7,0.9-3.4,1.7-5.1,2.6c-0.5,0.2-0.8,0.3-1.1-0.1c-0.6-0.7-1.7-1.3-1.8-2.1c-0.1-0.8,0.6-1.7,1-2.6c0.1-0.3,0.3-0.5,0.4-0.8
		c0.8-2,1.9-3.5,3.9-4.6c1.7-0.9,3-2.6,4.5-4c3.2-3.1,6.3-6.3,9.4-9.4c0.1-0.1,0.3-0.2,0.4-0.3C60.4,80.7,61.8,82.1,63.3,83.6"/>
</g>
</svg>
