<?xml version="1.0" encoding="utf-8"?>
<!-- Generator: Adobe Illustrator 25.1.0, SVG Export Plug-In . SVG Version: 6.00 Build 0)  -->
<svg version="1.1" id="Layer_1" xmlns="http://www.w3.org/2000/svg" xmlns:xlink="http://www.w3.org/1999/xlink" x="0px" y="0px"
	 viewBox="0 0 120.6 119.6" style="enable-background:new 0 0 120.6 119.6;" xml:space="preserve">
<style type="text/css">
	.st0{fill:#32A6B2;}
	.st1{fill:#FFFFFF;}
</style>
<g>
	<path class="st0" d="M118.8,59.8c0,32.3-26.2,58.5-58.5,58.5C28,118.3,1.8,92.1,1.8,59.8C1.8,27.5,28,1.3,60.3,1.3
		C92.6,1.3,118.8,27.5,118.8,59.8"/>
	<path class="st1" d="M32.9,74.3V46.5c9.1,7,18.3,14,27.4,21c9.2-7,18.3-14,27.4-21v27.8c-0.7,1.5-1.3,3-3.5,3c-16,0-31.9,0-47.9,0
		c-1.1,0-2-0.4-2.6-1.3C33.5,75.4,33.2,74.8,32.9,74.3"/>
	<path class="st1" d="M86.5,42.9C77.7,49.6,69,56.1,60.3,62.8c-8.7-6.6-17.4-13.2-26.1-19.9C35.4,42.1,85.1,42.1,86.5,42.9"/>
</g>
</svg>
