<?xml version="1.0" encoding="utf-8"?>
<!-- Generator: Adobe Illustrator 25.1.0, SVG Export Plug-In . SVG Version: 6.00 Build 0)  -->
<svg version="1.1" xmlns="http://www.w3.org/2000/svg" xmlns:xlink="http://www.w3.org/1999/xlink" x="0px" y="0px"
	 viewBox="0 0 428 122" style="enable-background:new 0 0 428 122;" xml:space="preserve">
<style type="text/css">
	.st0{display:none;}
	.st1{display:inline;fill:#990808;}
	.st2{fill:#32BEC5;}
	.st3{fill:#CCCCCC;}
	.st4{fill:#FFFFFF;}
	.st5{fill:#75CCD5;}
</style>
<g id="Layer_2" class="st0">
	<rect x="-142" y="-103" class="st1" width="679" height="316"/>
</g>
<g id="Layer_1">
	<g>
		<path class="st2" d="M32.6,32.3c1.1,0.5,2.3,0.8,3.5,1.1c3.4-5.2,8.4-9.3,14.2-11.6c0.2-1.1,0.5-2.3,0.6-3.5
			c0.1-0.8,0.3-5.4,0.5-15.3C37.6,6.5,26.7,15,20.4,26c4.3,3.2,8.6,5.1,11.9,6.2L32.6,32.3z"/>
		<path class="st2" d="M33.6,62.9c-1.4-0.8-2.8-1.7-4.3-2.6c-5.9-3.6-10.9-8.7-14.9-14.1c-0.1,1.3-0.1,2.6-0.1,3.9
			c0,0.1,0,0.2,0,0.3c0,0.1,0,0.2,0,0.3c0,1.6,0.2,3.2,0.4,4.8c1.6,12.5,7.5,22.6,15.7,31.7c4.4,4.9,29.2,29,31.6,31.3V81.4
			C49.2,81.4,38.4,73.8,33.6,62.9"/>
		<path class="st3" d="M103.7,24l7.4-2c0,0-0.2,0.4-0.3,0.6c-1.5,2.9-3.4,5.5-5.5,7.8c-1.5,1.6-3.1,3.2-4.9,4.6
			c-3.8,3-14.8,5.6-20.4,4.2c-3.1-0.8-5.6-2.2-7-5.2c0-0.1-0.1-0.2-0.1-0.3c-0.7-1.4-1.3-2.9-1.8-4.4c-0.7-2.1-1.6-13.8-2.3-27
			c-2.1-0.4-4.3-0.7-6.5-0.9h-0.6v75.3c0.1-0.1,0.3-0.2,0.5-0.4c2.5-1.9,4.9-4,7.5-5.7c6.6-4.5,13.5-8.7,20.4-12.7
			c5.2-3,9.9-6.7,14.1-11.1c1.6-1.6,3-3.7,4.3-5.9c3-5.1,5.5-11.1,7.5-15.9c0.1-0.2,0.3-0.6,0.3-0.6l4.9,7.7V6.9
			C115.3,12.7,103.7,24,103.7,24"/>
		<path class="st4" d="M19.7,24l-7.4-2c0,0,0.2,0.4,0.3,0.6c1.5,2.9,3.4,5.5,5.5,7.8c1.5,1.6,3.1,3.2,4.9,4.6
			c3.8,3,14.8,5.6,20.4,4.2c3.1-0.8,5.6-2.2,7-5.2c0-0.1,0.1-0.2,0.1-0.3c0.7-1.4,1.3-2.9,1.8-4.4c0.7-2.1,1.6-13.8,2.3-27
			c2.1-0.4,4.3-0.7,6.5-0.9h0.6v75.3c-0.1-0.1-0.3-0.2-0.5-0.4c-2.5-1.9-4.9-4-7.5-5.7C47,66,40.2,61.9,33.2,57.8
			c-5.2-3-9.9-6.7-14.1-11.1c-1.6-1.6-3-3.7-4.3-5.9c-3-5.1-5.5-11.1-7.5-15.9c-0.1-0.2-0.3-0.6-0.3-0.6l-4.9,7.7V6.9
			C8.1,12.7,19.7,24,19.7,24"/>
		<path class="st5" d="M88.4,34.8C88.4,34.8,88.5,34.8,88.4,34.8c0.6-0.1,1.1-0.2,1.7-0.3c0.8,0,2.6,0,4.9-1c1-0.3,1.8-0.8,2.9-1.7
			c0.1-0.1,0.2-0.2,0.3-0.3c0.8-0.6,1.6-1.3,2.4-2.1c0.1-0.1,0.3-0.2,0.4-0.4l0,0c0.7-0.8,1.5-1.7,2.3-2.7C97,15.4,86.4,7,72.9,3.2
			c0.5,8.8,0.9,14.9,1.3,18.9C80.2,24.8,85.1,29.2,88.4,34.8"/>
		<path class="st5" d="M109.4,50.1c0-1,0-2-0.1-3c-0.7,0.9-1.4,1.7-2.1,2.5c-4.3,4.6-9.4,8.5-15,11.8c-0.7,0.4-1.3,0.8-2,1.2
			c-4.7,11.1-15.7,18.8-28.4,18.8v37.3c2.4-2.3,27.2-26.4,31.6-31.3c8.1-9.1,14.1-19.2,15.7-31.7c0.2-1.6,0.3-3.2,0.4-4.8
			c0-0.1,0-0.2,0-0.3C109.4,50.3,109.4,50.2,109.4,50.1"/>
		<path class="st4" d="M176.6,54.7h-23.4l-4.5,10.8h-12l22.5-50.4h11.5l22.5,50.4h-12.2L176.6,54.7z M173,45.9l-8-19.3l-8,19.3H173z
			"/>
		<path class="st4" d="M221.8,26.2v10.4c-0.9-0.1-1.7-0.1-2.5-0.1c-6.2,0-10.3,3.4-10.3,10.8v18.3h-11.2V26.8h10.7v5.1
			C211.3,28.2,215.9,26.2,221.8,26.2"/>
		<polygon class="st4" points="245.2,50.3 239.8,55.7 239.8,65.5 228.5,65.5 228.5,12.1 239.8,12.1 239.8,42.4 256.2,26.8 
			269.6,26.8 253.5,43.2 271,65.5 257.4,65.5 		"/>
		<path class="st4" d="M310.9,39.5h10.7V60c-5.5,4.2-13.2,6.4-20.4,6.4c-15.8,0-27.5-10.9-27.5-26.1c0-15.2,11.7-26.1,27.7-26.1
			c8.9,0,16.2,3,21.1,8.7l-7.5,6.9c-3.7-3.9-7.9-5.7-13-5.7c-9.8,0-16.5,6.6-16.5,16.1c0,9.4,6.7,16.1,16.3,16.1
			c3.2,0,6.1-0.6,9.1-2.2V39.5z"/>
		<path class="st4" d="M376.1,33.4c0,11.2-8.4,18.2-21.9,18.2H344v13.9h-11.7V15.1h21.8C367.6,15.1,376.1,22.1,376.1,33.4
			 M364.2,33.4c0-5.5-3.6-8.8-10.7-8.8H344v17.5h9.5C360.6,42.1,364.2,38.9,364.2,33.4"/>
		<path class="st4" d="M381.1,60.6l4-8.8c4.2,3.1,10.6,5.3,16.6,5.3c6.9,0,9.7-2.3,9.7-5.4c0-9.4-29.3-3-29.3-21.7
			c0-8.6,6.9-15.7,21.2-15.7c6.3,0,12.8,1.5,17.5,4.5l-3.6,8.9c-4.7-2.7-9.5-4-14-4c-6.9,0-9.6,2.6-9.6,5.8
			c0,9.3,29.3,2.9,29.3,21.4c0,8.4-7,15.6-21.4,15.6C393.6,66.4,385.6,64,381.1,60.6"/>
		<path class="st4" d="M150.7,93.3c5.9,0,9.6,0.3,11.2,1c1.9,0.9,2.9,2.9,2.9,6.2c0,3.1-1.1,5.2-3.5,6.1c-1.9,0.8-5.7,1.2-11.4,1.2
			c-6.2,0-10.2-0.7-12-2c-1.4-1-2-3.3-2-6.8h3.8c0,2.4,0.5,3.9,1.6,4.5c1.1,0.6,4,0.9,8.7,0.9c4.6,0,7.6-0.2,9-0.7
			c1.4-0.4,2-1.5,2-3.2c0-1.7-0.5-2.8-1.5-3.2c-1-0.4-3.9-0.6-8.7-0.6c-5.8,0-9.7-0.7-11.8-2.1c-1.5-1.1-2.3-3-2.3-5.8
			c0-3,0.9-4.9,2.8-5.8c1.8-0.9,5.6-1.3,11.3-1.3c5.7,0,9.4,0.7,11.2,2c1.4,1.1,2.1,3.2,2.1,6.4h-3.7c0-2.2-0.6-3.5-1.7-4.1
			c-1.1-0.6-3.7-0.9-7.9-0.9c-3.6,0-5.7,0.1-6.6,0.2c-2.5,0.3-3.7,1.5-3.7,3.5c0,1.7,0.7,2.9,2,3.5C143.8,93,146.5,93.3,150.7,93.3"
			/>
		<polygon class="st4" points="205.3,82.1 210.4,82.1 195.3,97.3 195.3,107.5 191.5,107.5 191.5,97.3 176.5,82.1 181.6,82.1 
			193.5,94.2 		"/>
		<path class="st4" d="M236.7,93.3c5.9,0,9.6,0.3,11.2,1c1.9,0.9,2.9,2.9,2.9,6.2c0,3.1-1.1,5.2-3.5,6.1c-1.9,0.8-5.7,1.2-11.4,1.2
			c-6.2,0-10.2-0.7-12-2c-1.4-1-2-3.3-2-6.8h3.8c0,2.4,0.5,3.9,1.6,4.5c1.1,0.6,4,0.9,8.7,0.9c4.6,0,7.6-0.2,9-0.7
			c1.4-0.4,2-1.5,2-3.2c0-1.7-0.5-2.8-1.5-3.2c-1-0.4-3.9-0.6-8.7-0.6c-5.8,0-9.7-0.7-11.8-2.1c-1.5-1.1-2.3-3-2.3-5.8
			c0-3,0.9-4.9,2.8-5.8c1.8-0.9,5.6-1.3,11.3-1.3c5.7,0,9.4,0.7,11.2,2c1.4,1.1,2.1,3.2,2.1,6.4h-3.7c0-2.2-0.6-3.5-1.7-4.1
			c-1.1-0.6-3.7-0.9-7.9-0.9c-3.6,0-5.7,0.1-6.6,0.2c-2.5,0.3-3.7,1.5-3.7,3.5c0,1.7,0.7,2.9,2,3.5C229.7,93,232.5,93.3,236.7,93.3"
			/>
		<polygon class="st4" points="264.1,82.1 290.6,82.1 290.6,85.5 279.3,85.5 279.3,107.5 275.5,107.5 275.5,85.5 264.1,85.5 		"/>
		<polygon class="st4" points="303.2,82.1 327.5,82.1 327.5,85.5 307,85.5 307,92.9 326.8,92.9 326.8,96.3 307,96.3 307,104.1 
			327.5,104.1 327.5,107.5 303.2,107.5 		"/>
		<polygon class="st4" points="350.1,82.1 363.2,103 376.3,82.1 383.1,82.1 383.1,107.5 379.3,107.5 379.3,85.5 378.6,85.5 
			364.4,107.5 362,107.5 347.8,85.5 347.1,85.5 347.1,107.5 343.3,107.5 343.3,82.1 		"/>
		<path class="st4" d="M412.8,93.3c5.9,0,9.6,0.3,11.2,1c1.9,0.9,2.9,2.9,2.9,6.2c0,3.1-1.1,5.2-3.5,6.1c-1.9,0.8-5.7,1.2-11.4,1.2
			c-6.2,0-10.2-0.7-12-2c-1.4-1-2-3.3-2-6.8h3.8c0,2.4,0.5,3.9,1.6,4.5c1.1,0.6,4,0.9,8.7,0.9c4.6,0,7.6-0.2,9-0.7
			c1.4-0.4,2-1.5,2-3.2c0-1.7-0.5-2.8-1.5-3.2c-1-0.4-3.9-0.6-8.7-0.6c-5.8,0-9.7-0.7-11.8-2.1c-1.5-1.1-2.3-3-2.3-5.8
			c0-3,0.9-4.9,2.8-5.8c1.8-0.9,5.6-1.3,11.3-1.3c5.7,0,9.4,0.7,11.2,2c1.4,1.1,2.1,3.2,2.1,6.4h-3.7c0-2.2-0.6-3.5-1.7-4.1
			c-1.1-0.6-3.7-0.9-7.9-0.9c-3.6,0-5.7,0.1-6.6,0.2c-2.5,0.3-3.7,1.5-3.7,3.5c0,1.7,0.7,2.9,2,3.5C405.9,93,408.6,93.3,412.8,93.3"
			/>
	</g>
</g>
</svg>
