<?xml version="1.0" encoding="utf-8"?>
<!-- Generator: Adobe Illustrator 25.1.0, SVG Export Plug-In . SVG Version: 6.00 Build 0)  -->
<svg version="1.1" id="Layer_1" xmlns="http://www.w3.org/2000/svg" xmlns:xlink="http://www.w3.org/1999/xlink" x="0px" y="0px"
	 viewBox="0 0 120.6 119.6" style="enable-background:new 0 0 120.6 119.6;" xml:space="preserve">
<style type="text/css">
	.st0{fill:#32A6B2;}
	.st1{fill:#FFFFFF;}
</style>
<g>
	<path class="st0" d="M118.8,59.8c0,32.3-26.2,58.5-58.5,58.5C28,118.3,1.8,92.1,1.8,59.8C1.8,27.5,28,1.3,60.3,1.3
		C92.6,1.3,118.8,27.5,118.8,59.8"/>
	<path class="st1" d="M36.5,60.3c-1.5,0-2.8,0-4.1,0c-0.4,0-0.7-0.2-1.1-0.4c0.2-0.4,0.3-0.9,0.6-1.1c3.6-2.9,7.1-5.7,10.7-8.6
		c4.9-3.9,9.8-7.8,14.6-11.7c0.9-0.7,1.5-0.7,2.4,0c2.8,2.2,5.7,4.3,8.7,6.5c0-0.3,0.1-0.5,0.1-0.7c0-2.1,0-2.1,2.1-2.1
		c1,0,1.9,0.1,2.9,0c1.2-0.1,1.7,0.3,1.6,1.5c-0.1,1.8,0,3.7-0.1,5.5c0,1,0.3,1.5,1,2.1c3,2.4,5.9,4.9,8.8,7.3
		c0.3,0.3,0.5,0.8,0.8,1.2c-0.5,0.2-0.9,0.4-1.4,0.4c-1.2,0.1-2.4,0-3.8,0v1.5c0,6.1,0,12.1,0,18.2c0,1.3-0.4,1.6-1.6,1.6
		c-3.7-0.1-7.4,0-11.1,0c-1.8,0-1.8,0-1.8-1.8c0-4.8,0-9.7,0-14.5v-1.4h-9.4v1.5c0,4.9,0,9.8,0,14.6c0,1.2-0.3,1.6-1.5,1.6
		c-5.6-0.1-11.3-0.1-16.9,0c-1.2,0-1.5-0.4-1.5-1.5c0-6.1,0-12.2,0-18.3V60.3z"/>
</g>
</svg>
