<?xml version="1.0" encoding="utf-8"?>
<!-- Generator: Adobe Illustrator 25.1.0, SVG Export Plug-In . SVG Version: 6.00 Build 0)  -->
<svg version="1.1" id="Layer_1" xmlns="http://www.w3.org/2000/svg" xmlns:xlink="http://www.w3.org/1999/xlink" x="0px" y="0px"
	 viewBox="0 0 120.6 119.6" style="enable-background:new 0 0 120.6 119.6;" xml:space="preserve">
<style type="text/css">
	.st0{fill:#32A6B2;}
	.st1{fill:#FFFFFF;}
</style>
<g>
	<path class="st0" d="M118.8,59.8c0,32.3-26.2,58.5-58.5,58.5C28,118.3,1.8,92.1,1.8,59.8C1.8,27.5,28,1.3,60.3,1.3
		C92.6,1.3,118.8,27.5,118.8,59.8"/>
	<path class="st1" d="M75,57.3c0,7.1,0,14.1,0,21.2c0,3.7-1.2,4.9-4.8,4.9c-6.7,0-13.5,0-20.2,0c-3.1,0-4.5-1.3-4.5-4.4
		c0-14.4,0-23.9,0-38.4c0-3.1,1.4-4.4,4.5-4.4c6.8,0,13.7,0,20.5,0c3.2,0,4.5,1.3,4.5,4.5C75,47.9,75,50.1,75,57.3 M72.1,42.7H48.5
		v28.6h23.6V42.7z M60.2,40.3c1.5,0,3.1,0.1,4.6,0c0.5,0,0.9-0.6,1.4-0.9c-0.4-0.3-0.9-0.8-1.3-0.8c-3.1-0.1-6.2-0.1-9.3,0
		c-0.4,0-0.9,0.6-1.3,0.9c0.5,0.3,0.9,0.9,1.4,0.9C57.2,40.3,58.7,40.3,60.2,40.3 M60.3,79.7c1.4,0,2.4-1.1,2.4-2.4
		c0-1.3-1.2-2.4-2.4-2.4c-1.3,0-2.4,1.2-2.4,2.5C57.9,78.7,59,79.7,60.3,79.7"/>
</g>
</svg>
