<?xml version="1.0" encoding="utf-8"?>
<!-- Generator: Adobe Illustrator 25.1.0, SVG Export Plug-In . SVG Version: 6.00 Build 0)  -->
<svg version="1.1" id="Layer_1" xmlns="http://www.w3.org/2000/svg" xmlns:xlink="http://www.w3.org/1999/xlink" x="0px" y="0px"
	 viewBox="0 0 218 72" style="enable-background:new 0 0 218 72;" xml:space="preserve">
<style type="text/css">
	.st0{fill:#212657;}
	.st1{fill:#33A5B1;}
</style>
<g>
	<g>
		<g>
			<path class="st0" d="M20.4,19.6c0.7,0.3,1.4,0.5,2.1,0.6c2-3.1,5-5.5,8.4-6.9c0.1-0.7,0.3-1.4,0.4-2.1c0.1-0.5,0.2-3.2,0.3-9.1
				c-8.2,2.1-14.6,7.1-18.4,13.6c2.6,1.9,5.1,3,7.1,3.7L20.4,19.6z"/>
			<path class="st0" d="M21,37.7c-0.8-0.5-1.7-1-2.5-1.5c-3.5-2.2-6.4-5.1-8.8-8.4c-0.1,0.8-0.1,1.5-0.1,2.3c0,0.1,0,0.1,0,0.2
				c0,0.1,0,0.1,0,0.2c0,1,0.1,1.9,0.2,2.9c0.9,7.4,4.5,13.4,9.3,18.8c2.6,2.9,17.3,17.2,18.7,18.5V48.7
				C30.2,48.7,23.8,44.2,21,37.7z"/>
		</g>
		<path class="st1" d="M62.2,14.7l4.4-1.2c0,0-0.1,0.2-0.2,0.3c-0.9,1.7-2,3.2-3.3,4.6c-0.9,1-1.9,1.9-2.9,2.7
			c-2.3,1.8-8.8,3.3-12.1,2.5c-1.8-0.5-3.3-1.3-4.2-3.1c0-0.1,0-0.1-0.1-0.2c-0.4-0.9-0.8-1.7-1.1-2.6c-0.4-1.2-0.9-8.2-1.4-16
			c-1.3-0.2-2.5-0.4-3.9-0.5h-0.3v44.6c0.1,0,0.2-0.1,0.3-0.2c1.5-1.1,2.9-2.4,4.4-3.4c3.9-2.7,8-5.1,12.1-7.5
			c3.1-1.8,5.9-4,8.3-6.6c0.9-1,1.8-2.2,2.6-3.5c1.8-3,3.3-6.6,4.5-9.4c0-0.1,0.2-0.3,0.2-0.3l2.9,4.6c0,0,0-9.9,0-14.9
			C69.1,8,62.2,14.7,62.2,14.7z"/>
		<path class="st1" d="M12.8,14.7l-4.4-1.2c0,0,0.1,0.2,0.2,0.3c0.9,1.7,2,3.2,3.3,4.6c0.9,1,1.9,1.9,2.9,2.7
			c2.3,1.8,8.8,3.3,12.1,2.5c1.8-0.5,3.3-1.3,4.2-3.1c0-0.1,0-0.1,0.1-0.2c0.4-0.9,0.8-1.7,1.1-2.6c0.4-1.2,0.9-8.2,1.4-16
			c1.3-0.2,2.5-0.4,3.9-0.5h0.3v44.6c-0.1,0-0.2-0.1-0.3-0.2c-1.5-1.1-2.9-2.4-4.4-3.4c-3.9-2.7-8-5.1-12.1-7.5
			c-3.1-1.8-5.9-4-8.3-6.6c-0.9-1-1.8-2.2-2.6-3.5c-1.8-3-3.3-6.6-4.5-9.4c0-0.1-0.2-0.3-0.2-0.3l-2.9,4.6c0,0,0-9.9,0-14.9
			C5.9,8,12.8,14.7,12.8,14.7z"/>
		<g>
			<path class="st0" d="M53.1,21.1C53.2,21.1,53.2,21.1,53.1,21.1c0.4-0.1,0.7-0.1,1-0.2c0.5,0,1.5,0,2.9-0.6c0.6-0.2,1.1-0.5,1.7-1
				c0.1-0.1,0.1-0.1,0.2-0.2c0.5-0.3,0.9-0.8,1.4-1.3c0.1-0.1,0.2-0.1,0.2-0.2l0,0c0.4-0.5,0.9-1,1.4-1.6C58.2,9.6,52,4.6,44,2.4
				c0.3,5.2,0.6,8.8,0.8,11.2C48.3,15.1,51.2,17.8,53.1,21.1z"/>
			<path class="st0" d="M65.6,30.1c0-0.6,0-1.2,0-1.8c-0.4,0.5-0.8,1-1.2,1.5c-2.6,2.7-5.5,5.1-8.9,7c-0.4,0.2-0.8,0.5-1.2,0.7
				c-2.8,6.6-9.3,11.2-16.9,11.2l0,0v22.1c1.4-1.4,16.1-15.6,18.7-18.5c4.8-5.4,8.3-11.4,9.3-18.8c0.1-1,0.2-1.9,0.2-2.9
				c0-0.1,0-0.1,0-0.2C65.6,30.3,65.6,30.2,65.6,30.1z"/>
		</g>
	</g>
	<g>
		<g>
			<path class="st0" d="M100.4,33.6H89.6l-2.1,5H82l10.3-23.2h5.3l10.4,23.2h-5.6L100.4,33.6z M98.7,29.5L95,20.6l-3.7,8.9H98.7z"/>
			<path class="st0" d="M121.2,20.5v4.8c-0.4,0-0.8-0.1-1.2-0.1c-2.9,0-4.7,1.6-4.7,5v8.4h-5.2V20.7h4.9v2.4
				C116.3,21.3,118.4,20.5,121.2,20.5z"/>
			<path class="st0" d="M131.9,31.6l-2.5,2.5v4.5h-5.2V14h5.2v13.9l7.6-7.2h6.2l-7.4,7.6l8.1,10.3h-6.3L131.9,31.6z"/>
			<path class="st0" d="M162.2,26.6h4.9V36c-2.6,1.9-6.1,3-9.4,3c-7.3,0-12.7-5-12.7-12c0-7,5.4-12,12.8-12c4.1,0,7.5,1.4,9.7,4
				l-3.4,3.2c-1.7-1.8-3.6-2.6-6-2.6c-4.5,0-7.6,3-7.6,7.4c0,4.3,3.1,7.4,7.5,7.4c1.5,0,2.8-0.3,4.2-1V26.6z"/>
			<path class="st0" d="M192.2,23.8c0,5.2-3.9,8.4-10.1,8.4h-4.7v6.4h-5.4V15.3h10C188.3,15.3,192.2,18.6,192.2,23.8z M186.8,23.8
				c0-2.6-1.7-4-4.9-4h-4.4v8.1h4.4C185.1,27.8,186.8,26.3,186.8,23.8z"/>
			<path class="st0" d="M194.6,36.3l1.8-4c2,1.4,4.9,2.4,7.7,2.4c3.2,0,4.5-1.1,4.5-2.5c0-4.3-13.5-1.4-13.5-10
				c0-3.9,3.2-7.2,9.8-7.2c2.9,0,5.9,0.7,8.1,2.1l-1.7,4.1c-2.2-1.2-4.4-1.8-6.4-1.8c-3.2,0-4.4,1.2-4.4,2.7
				c0,4.3,13.5,1.3,13.5,9.8c0,3.9-3.2,7.2-9.8,7.2C200.3,39,196.6,37.9,194.6,36.3z"/>
		</g>
		<g>
			<path class="st1" d="M88.4,51.3c2.7,0,4.4,0.2,5.1,0.5c0.9,0.4,1.3,1.4,1.3,2.9c0,1.4-0.5,2.4-1.6,2.8C92.4,57.9,90.7,58,88,58
				c-2.9,0-4.7-0.3-5.5-0.9c-0.6-0.5-0.9-1.5-0.9-3.1h1.7c0,1.1,0.2,1.8,0.7,2.1c0.5,0.3,1.8,0.4,4,0.4c2.1,0,3.5-0.1,4.2-0.3
				c0.6-0.2,0.9-0.7,0.9-1.5c0-0.8-0.2-1.3-0.7-1.5c-0.5-0.2-1.8-0.3-4-0.3c-2.7,0-4.5-0.3-5.4-1c-0.7-0.5-1.1-1.4-1.1-2.6
				c0-1.4,0.4-2.3,1.3-2.7c0.8-0.4,2.6-0.6,5.2-0.6c2.6,0,4.3,0.3,5.1,0.9c0.7,0.5,1,1.5,1,2.9h-1.7c0-1-0.3-1.6-0.8-1.9
				c-0.5-0.3-1.7-0.4-3.6-0.4c-1.6,0-2.6,0-3,0.1c-1.1,0.1-1.7,0.7-1.7,1.6c0,0.8,0.3,1.3,0.9,1.6C85.2,51.2,86.5,51.3,88.4,51.3z"
				/>
			<path class="st1" d="M113.6,46.2h2.3l-6.9,7v4.7h-1.8v-4.7l-6.9-7h2.3l5.4,5.6L113.6,46.2z"/>
			<path class="st1" d="M128,51.3c2.7,0,4.4,0.2,5.1,0.5c0.9,0.4,1.3,1.4,1.3,2.9c0,1.4-0.5,2.4-1.6,2.8c-0.9,0.4-2.6,0.5-5.3,0.5
				c-2.9,0-4.7-0.3-5.5-0.9c-0.6-0.5-0.9-1.5-0.9-3.1h1.7c0,1.1,0.2,1.8,0.7,2.1c0.5,0.3,1.8,0.4,4,0.4c2.1,0,3.5-0.1,4.2-0.3
				c0.6-0.2,0.9-0.7,0.9-1.5c0-0.8-0.2-1.3-0.7-1.5c-0.5-0.2-1.8-0.3-4-0.3c-2.7,0-4.5-0.3-5.4-1c-0.7-0.5-1.1-1.4-1.1-2.6
				c0-1.4,0.4-2.3,1.3-2.7c0.8-0.4,2.6-0.6,5.2-0.6c2.6,0,4.3,0.3,5.1,0.9c0.7,0.5,1,1.5,1,2.9h-1.7c0-1-0.3-1.6-0.8-1.9
				c-0.5-0.3-1.7-0.4-3.6-0.4c-1.6,0-2.6,0-3,0.1c-1.1,0.1-1.7,0.7-1.7,1.6c0,0.8,0.3,1.3,0.9,1.6C124.8,51.2,126.1,51.3,128,51.3z"
				/>
			<path class="st1" d="M140.7,46.2h12.2v1.6h-5.2v10.1h-1.7V47.8h-5.2V46.2z"/>
			<path class="st1" d="M158.7,46.2h11.2v1.6h-9.4v3.4h9.1v1.6h-9.1v3.6h9.4v1.6h-11.2V46.2z"/>
			<path class="st1" d="M180.3,46.2l6,9.6l6-9.6h3.1v11.7h-1.7V47.8h-0.3l-6.5,10.1h-1.1l-6.5-10.1h-0.3v10.1h-1.7V46.2H180.3z"/>
			<path class="st1" d="M209.1,51.3c2.7,0,4.4,0.2,5.1,0.5c0.9,0.4,1.3,1.4,1.3,2.9c0,1.4-0.5,2.4-1.6,2.8c-0.9,0.4-2.6,0.5-5.3,0.5
				c-2.9,0-4.7-0.3-5.5-0.9c-0.6-0.5-0.9-1.5-0.9-3.1h1.7c0,1.1,0.2,1.8,0.7,2.1c0.5,0.3,1.8,0.4,4,0.4c2.1,0,3.5-0.1,4.2-0.3
				c0.6-0.2,0.9-0.7,0.9-1.5c0-0.8-0.2-1.3-0.7-1.5c-0.5-0.2-1.8-0.3-4-0.3c-2.7,0-4.5-0.3-5.4-1c-0.7-0.5-1.1-1.4-1.1-2.6
				c0-1.4,0.4-2.3,1.3-2.7c0.8-0.4,2.6-0.6,5.2-0.6c2.6,0,4.3,0.3,5.1,0.9c0.7,0.5,1,1.5,1,2.9h-1.7c0-1-0.3-1.6-0.8-1.9
				c-0.5-0.3-1.7-0.4-3.6-0.4c-1.6,0-2.6,0-3,0.1c-1.1,0.1-1.7,0.7-1.7,1.6c0,0.8,0.3,1.3,0.9,1.6C206,51.2,207.2,51.3,209.1,51.3z"
				/>
		</g>
	</g>
</g>
</svg>
