<svg xmlns="http://www.w3.org/2000/svg" xmlns:xlink="http://www.w3.org/1999/xlink" viewBox="0 0 288 288" xmlns:v="https://vecta.io/nano"><image width="552" height="552" xlink:href="9531C248.png" transform="matrix(.4783 0 0 .4783 12.1582 12.886)" overflow="visible" opacity=".59"/><linearGradient id="A" gradientUnits="userSpaceOnUse" x1="-30.683" y1="139.875" x2="479.025" y2="139.875"><stop offset="0"/><stop offset=".602" stop-color="#20222a"/><stop offset=".84" stop-color="#3e4151"/><stop offset="1" stop-color="#4e5266"/></linearGradient><path d="M272.1 139.9c0 69.5-56.4 125.9-125.9 125.9s-126-56.4-126-125.9C20.2 70.3 76.6 14 146.1 14c69.6 0 126 56.3 126 125.9z" fill-rule="evenodd" fill="url(#A)"/><linearGradient id="B" gradientUnits="userSpaceOnUse" x1="110.76" y1="139.88" x2="397.086" y2="139.88"><stop offset="0" stop-color="#0d0e19"/><stop offset=".602" stop-color="#20222a"/><stop offset=".84" stop-color="#3e4151"/><stop offset="1" stop-color="#4e5266"/></linearGradient><path d="M146.2,14v251.9c69.5,0,125.9-56.4,125.9-125.9S215.7,14,146.2,14z" fill-rule="evenodd" fill="url(#B)"/><linearGradient id="C" gradientUnits="userSpaceOnUse" x1="154.977" y1="144.886" x2="176.732" y2="144.886"><stop offset="0" stop-color="#d47622"/><stop offset=".056" stop-color="#d67d26"/><stop offset=".137" stop-color="#dc9032"/><stop offset=".233" stop-color="#e6af45"/><stop offset=".34" stop-color="#f3da60"/><stop offset=".347" stop-color="#f4dd62"/><stop offset=".561" stop-color="#f4e38b"/><stop offset=".67" stop-color="#f4dd62"/><stop offset="1" stop-color="#b27f2a"/></linearGradient><path d="M176.7 144.9v40c0 5.2-1.9 9.1-6.7 11.2-6.4 2.8-13.6-1.3-14.8-8.3-.2-1-.2-2-.2-2.9v-80.1c0-6.2 3.1-10.4 8.4-11.7 6.3-1.6 12.8 2.9 13.2 9.4.3 5.6.2 11.2.2 16.7l-.1 25.7z" fill="url(#C)"/><linearGradient id="D" gradientUnits="userSpaceOnUse" x1="111.585" y1="144.854" x2="133.298" y2="144.854"><stop offset="0" stop-color="#d47622"/><stop offset=".056" stop-color="#d67d26"/><stop offset=".137" stop-color="#dc9032"/><stop offset=".233" stop-color="#e6af45"/><stop offset=".34" stop-color="#f3da60"/><stop offset=".347" stop-color="#f4dd62"/><stop offset=".561" stop-color="#f4e38b"/><stop offset=".67" stop-color="#f4dd62"/><stop offset="1" stop-color="#b27f2a"/></linearGradient><path d="M111.6 144.8v-40.5c0-5.3 2.6-9.3 7.1-10.9 6.7-2.4 13.7 2 14.5 9.1.1.7.1 1.4.1 2.1v80.5c0 6.2-3.5 10.7-9 11.6-6.5 1.1-12.4-3.6-12.6-10.2s-.1-13.1-.1-19.7v-22z" fill="url(#D)"/></svg>